<svg width="125" height="125" viewBox="0 0 125 125" fill="none" xmlns="http://www.w3.org/2000/svg">
<path fill-rule="evenodd" clip-rule="evenodd" d="M6.5 29.4969L23.4834 13.9902H103.232L116.523 27.2816L118 93.7386L105.447 109.245L24.9603 110.722L6.5 95.9538V29.4969ZM22.745 65.6785V34.6652L101.755 32.45V65.6785H22.745ZM24.9606 76.0166H29.391H38.252L41.944 84.8775L38.252 92.2616H27.9142L22.0069 83.4007L24.9606 76.0166ZM50.8046 84.8775L70.7417 76.0166V93.0001L50.8046 84.8775ZM81.8179 76.0166L101.755 84.8775L81.8179 93.0001V76.0166Z" fill="#EB77C1"/>
<path d="M23.4834 13.9902V12.4902H22.9017L22.472 12.8825L23.4834 13.9902ZM6.5 29.4969L5.4886 28.3891L5 28.8352V29.4969H6.5ZM103.232 13.9902L104.292 12.9296L103.853 12.4902H103.232V13.9902ZM116.523 27.2816L118.023 27.2483L118.009 26.6466L117.584 26.221L116.523 27.2816ZM118 93.7386L119.166 94.6824L119.512 94.255L119.5 93.7052L118 93.7386ZM105.447 109.245L105.475 110.745L106.173 110.732L106.613 110.189L105.447 109.245ZM24.9603 110.722L24.0232 111.893L24.4462 112.232L24.9878 112.222L24.9603 110.722ZM6.5 95.9538H5V96.6747L5.56296 97.1251L6.5 95.9538ZM22.745 34.6652L22.7029 33.1658L21.245 33.2067V34.6652H22.745ZM22.745 65.6785H21.245V67.1785H22.745V65.6785ZM101.755 32.45H103.255V30.9074L101.713 30.9506L101.755 32.45ZM101.755 65.6785V67.1785H103.255V65.6785H101.755ZM24.9606 76.0166V74.5166H23.945L23.5679 75.4595L24.9606 76.0166ZM38.252 76.0166L39.6366 75.4397L39.252 74.5166H38.252V76.0166ZM41.944 84.8775L43.2857 85.5484L43.5927 84.9343L43.3286 84.3006L41.944 84.8775ZM38.252 92.2616V93.7616H39.179L39.5936 92.9325L38.252 92.2616ZM27.9142 92.2616L26.6661 93.0937L27.1114 93.7616H27.9142V92.2616ZM22.0069 83.4007L20.6142 82.8436L20.3212 83.5762L20.7589 84.2328L22.0069 83.4007ZM70.7417 76.0166H72.2417V73.7085L70.1325 74.6459L70.7417 76.0166ZM50.8046 84.8775L50.1954 83.5068L46.9763 84.9375L50.2387 86.2667L50.8046 84.8775ZM70.7417 93.0001L70.1758 94.3892L72.2417 95.2309V93.0001H70.7417ZM101.755 84.8775L102.321 86.2667L105.583 84.9375L102.364 83.5068L101.755 84.8775ZM81.8179 76.0166L82.4271 74.6459L80.3179 73.7085V76.0166H81.8179ZM81.8179 93.0001H80.3179V95.2309L82.3839 94.3892L81.8179 93.0001ZM22.472 12.8825L5.4886 28.3891L7.5114 30.6046L24.4948 15.098L22.472 12.8825ZM103.232 12.4902H23.4834V15.4902H103.232V12.4902ZM117.584 26.221L104.292 12.9296L102.171 15.0509L115.463 28.3423L117.584 26.221ZM119.5 93.7052L118.023 27.2483L115.024 27.3149L116.5 93.7719L119.5 93.7052ZM106.613 110.189L119.166 94.6824L116.834 92.7948L104.281 108.301L106.613 110.189ZM24.9878 112.222L105.475 110.745L105.42 107.745L24.9327 109.222L24.9878 112.222ZM5.56296 97.1251L24.0232 111.893L25.8973 109.551L7.43704 94.7825L5.56296 97.1251ZM5 29.4969V95.9538H8V29.4969H5ZM21.245 34.6652V65.6785H24.245V34.6652H21.245ZM101.713 30.9506L22.7029 33.1658L22.787 36.1646L101.797 33.9494L101.713 30.9506ZM103.255 65.6785V32.45H100.255V65.6785H103.255ZM22.745 67.1785H101.755V64.1785H22.745V67.1785ZM29.391 74.5166H24.9606V77.5166H29.391V74.5166ZM38.252 74.5166H29.391V77.5166H38.252V74.5166ZM43.3286 84.3006L39.6366 75.4397L36.8673 76.5935L40.5594 85.4545L43.3286 84.3006ZM39.5936 92.9325L43.2857 85.5484L40.6024 84.2067L36.9103 91.5908L39.5936 92.9325ZM27.9142 93.7616H38.252V90.7616H27.9142V93.7616ZM20.7589 84.2328L26.6661 93.0937L29.1623 91.4296L23.255 82.5687L20.7589 84.2328ZM23.5679 75.4595L20.6142 82.8436L23.3996 83.9578L26.3533 76.5737L23.5679 75.4595ZM70.1325 74.6459L50.1954 83.5068L51.4139 86.2483L71.3509 77.3873L70.1325 74.6459ZM72.2417 93.0001V76.0166H69.2417V93.0001H72.2417ZM50.2387 86.2667L70.1758 94.3892L71.3077 91.6109L51.3706 83.4884L50.2387 86.2667ZM102.364 83.5068L82.4271 74.6459L81.2087 77.3873L101.146 86.2483L102.364 83.5068ZM82.3839 94.3892L102.321 86.2667L101.189 83.4884L81.252 91.6109L82.3839 94.3892ZM80.3179 76.0166V93.0001H83.3179V76.0166H80.3179Z" fill="#75FB4C"/>
</svg>
