<svg width="262" height="116" viewBox="0 0 262 116" fill="none" xmlns="http://www.w3.org/2000/svg">
<path d="M6.79741 92.8295C6.36122 92.8633 5.96434 92.9999 5.60678 93.2392C5.2564 93.4701 4.9552 93.7795 4.70319 94.1673C4.45836 94.5467 4.27709 94.9879 4.15937 95.4907C4.04165 95.9935 4.00454 96.5253 4.04804 97.0861C4.09274 97.6625 4.26265 98.1861 4.55775 98.6568C4.86004 99.1192 5.25516 99.5156 5.74311 99.8461C6.23825 100.168 6.80523 100.406 7.44407 100.56C8.0907 100.714 8.78399 100.762 9.52396 100.705C10.0614 100.663 10.5641 100.577 11.032 100.447C11.507 100.308 11.9174 100.143 12.263 99.9516C12.6086 99.7602 12.8781 99.5473 13.0715 99.3129C13.2643 99.0707 13.351 98.825 13.3317 98.5757C13.3166 98.381 13.2691 98.2241 13.1894 98.1049C13.109 97.9779 13.0181 97.8674 12.9168 97.7734C12.8227 97.671 12.7366 97.5719 12.6587 97.4761C12.5801 97.3724 12.5345 97.2389 12.5218 97.0753C12.5097 96.9195 12.5372 96.7685 12.6042 96.6222C12.6712 96.476 12.7667 96.3432 12.8907 96.2239C13.0224 96.104 13.1715 96.0062 13.3381 95.9306C13.5124 95.8544 13.693 95.809 13.8799 95.7945C14.1058 95.777 14.3207 95.8191 14.5245 95.9209C14.736 96.022 14.9201 96.1723 15.0766 96.3717C15.2403 96.5627 15.372 96.7954 15.4716 97.0698C15.5784 97.3358 15.6439 97.6245 15.6681 97.9361C15.717 98.567 15.5952 99.1681 15.3025 99.7393C15.0093 100.303 14.5818 100.802 14.02 101.238C13.4583 101.673 12.7811 102.035 11.9886 102.324C11.1954 102.605 10.3237 102.782 9.37343 102.856C8.3219 102.937 7.34128 102.872 6.43158 102.661C5.52127 102.441 4.72323 102.104 4.03746 101.647C3.35948 101.191 2.81446 100.63 2.40239 99.9641C1.99033 99.2987 1.75227 98.5532 1.68823 97.7275C1.61815 96.824 1.70778 95.959 1.95711 95.1325C2.21424 94.3055 2.59216 93.5709 3.09088 92.9289C3.58959 92.2868 4.18755 91.7625 4.88475 91.3558C5.58974 90.9485 6.35506 90.7128 7.1807 90.6488C7.54679 90.6204 7.88505 90.6372 8.19547 90.6993C8.51307 90.7531 8.79056 90.8452 9.02792 90.9756C9.26528 91.1061 9.45413 91.2678 9.59446 91.4606C9.74198 91.6451 9.8248 91.8541 9.84293 92.0878C9.85743 92.2748 9.82848 92.4572 9.7561 92.6352C9.69089 92.8048 9.59722 92.961 9.47507 93.1037C9.35233 93.2386 9.2044 93.3519 9.03129 93.4437C8.86597 93.5349 8.68595 93.588 8.49122 93.6031C8.2887 93.6188 8.12151 93.5848 7.98963 93.501C7.86554 93.4166 7.74864 93.3238 7.63893 93.2226C7.52861 93.1136 7.4114 93.0169 7.28732 92.9325C7.16323 92.8481 6.99993 92.8138 6.79741 92.8295ZM13.9746 89.1345C13.9432 88.7294 14.0376 88.4322 14.258 88.2427C14.4784 88.0532 14.8573 87.9376 15.3948 87.8959C15.5817 87.8814 15.7468 87.8882 15.89 87.9163C16.0332 87.9444 16.1552 88.0015 16.2559 88.0877C16.356 88.1662 16.4394 88.2811 16.506 88.4327C16.5798 88.5759 16.6452 88.7628 16.7023 88.9934C16.8573 89.6788 17.0151 90.3992 17.1755 91.1547C17.3432 91.9018 17.5031 92.6495 17.6551 93.3978C17.8144 94.1377 17.9646 94.8626 18.1059 95.5725C18.2466 96.2747 18.3719 96.931 18.482 97.5415C18.5992 98.1437 18.6918 98.6811 18.7598 99.1538C18.835 99.6181 18.8832 99.9866 18.9043 100.259C18.9261 100.54 18.9172 100.779 18.8778 100.978C18.8462 101.177 18.7726 101.339 18.657 101.466C18.5492 101.591 18.4001 101.689 18.2096 101.759C18.0263 101.82 17.7944 101.862 17.514 101.883C17.2414 101.904 17.0179 101.851 16.8434 101.724C16.6768 101.596 16.5823 101.387 16.5599 101.099C16.537 100.803 16.4831 100.412 16.3983 99.9247C16.3129 99.4298 16.2077 98.8816 16.0827 98.2801C15.9576 97.6786 15.8179 97.039 15.6635 96.3614C15.5169 95.6832 15.363 95.0135 15.202 94.352C15.0488 93.69 14.8977 93.0553 14.7487 92.4478C14.6069 91.8319 14.4787 91.2894 14.3639 90.8203C14.2486 90.3435 14.1557 89.9549 14.0855 89.6548C14.0146 89.3469 13.9776 89.1734 13.9746 89.1345ZM21.7469 89.9303C21.521 89.9479 21.3044 89.9333 21.097 89.8867C20.8969 89.8317 20.7183 89.7515 20.5612 89.6462C20.4113 89.5324 20.2872 89.3971 20.1889 89.2402C20.0905 89.0832 20.0337 88.9074 20.0186 88.7127C19.9933 88.3855 20.1012 88.1107 20.3426 87.8883C20.5917 87.6652 20.9344 87.5368 21.3705 87.503C21.5731 87.4872 21.7708 87.5111 21.9638 87.5745C22.1562 87.6301 22.3273 87.7148 22.4772 87.8285C22.6348 87.9417 22.7631 88.0806 22.8621 88.2453C22.9605 88.4022 23.0166 88.5703 23.0305 88.7494C23.0565 89.0843 22.9524 89.3588 22.7183 89.5729C22.4913 89.7786 22.1675 89.8977 21.7469 89.9303ZM20.4226 93.618C20.4015 93.3454 20.5011 93.1143 20.7215 92.9249C20.9491 92.727 21.2576 92.6129 21.647 92.5827C22.348 92.5283 22.7406 92.7408 22.8248 93.2201C22.882 93.5526 22.9424 93.928 23.0062 94.3462C23.0778 94.7638 23.1476 95.2089 23.2156 95.6816C23.2908 96.146 23.3597 96.6304 23.4223 97.1348C23.4921 97.6309 23.5578 98.1234 23.6192 98.6123C23.68 99.0934 23.7358 99.5593 23.7864 100.01C23.837 100.46 23.8768 100.873 23.9058 101.246C23.936 101.636 23.8185 101.939 23.5532 102.155C23.2956 102.371 22.9021 102.5 22.3724 102.541C22.1309 102.56 21.9356 102.516 21.7863 102.41C21.6454 102.311 21.5665 102.153 21.5496 101.935C21.4662 100.86 21.361 99.8571 21.234 98.9266C21.1142 97.9878 20.9947 97.1547 20.8756 96.4273C20.7643 95.6994 20.6626 95.0961 20.5707 94.6174C20.4859 94.1303 20.4365 93.7972 20.4226 93.618ZM29.4829 91.6223C29.888 91.5909 30.2858 91.6188 30.6766 91.706C31.0673 91.7933 31.4146 91.927 31.7185 92.1071C32.0296 92.2789 32.2847 92.4864 32.4838 92.7295C32.6823 92.9649 32.7918 93.215 32.8123 93.4798C32.8256 93.6511 32.8036 93.8213 32.7461 93.9903C32.6881 94.1516 32.6055 94.299 32.4984 94.4327C32.3906 94.5586 32.2657 94.6662 32.1238 94.7556C31.9812 94.8372 31.8281 94.8843 31.6646 94.897C31.4854 94.9109 31.3167 94.8574 31.1585 94.7364C30.9996 94.6077 30.8281 94.4682 30.6441 94.3179C30.4672 94.1593 30.2685 94.0219 30.0479 93.9058C29.8345 93.7813 29.5837 93.7302 29.2955 93.7526C29.0151 93.7743 28.7671 93.8602 28.5515 94.0101C28.3359 94.16 28.1596 94.3618 28.0225 94.6153C27.8926 94.8605 27.7976 95.1499 27.7373 95.4837C27.6841 95.8091 27.6724 96.1626 27.702 96.5443C27.7866 97.6348 28.0576 98.4522 28.5151 98.9966C28.9721 99.5332 29.5861 99.7716 30.3572 99.7117C30.7233 99.6833 31.0303 99.6008 31.2783 99.464C31.5341 99.3266 31.7539 99.1803 31.9377 99.025C32.1294 98.8691 32.3025 98.7263 32.457 98.5968C32.6115 98.4673 32.7744 98.3959 32.9458 98.3826C33.0392 98.3753 33.1351 98.3992 33.2334 98.4543C33.3311 98.5016 33.4187 98.5692 33.496 98.6573C33.5805 98.7369 33.6504 98.8294 33.7056 98.9349C33.7686 99.0397 33.8043 99.1466 33.8128 99.2557C33.8327 99.5127 33.7247 99.7875 33.4888 100.08C33.2607 100.372 32.9568 100.646 32.5771 100.903C32.1967 101.152 31.7667 101.366 31.2868 101.544C30.8148 101.721 30.349 101.828 29.8894 101.864C29.2741 101.911 28.7 101.835 28.1672 101.633C27.635 101.439 27.1656 101.146 26.7591 100.755C26.352 100.355 26.0204 99.8679 25.7641 99.2922C25.5157 98.716 25.3637 98.0695 25.3081 97.3529C25.2477 96.574 25.3051 95.8487 25.4802 95.1769C25.6631 94.5045 25.9387 93.915 26.3069 93.4084C26.6822 92.8935 27.14 92.4819 27.6803 92.1735C28.22 91.8574 28.8209 91.6737 29.4829 91.6223ZM34.921 100.662C34.8684 99.9848 34.7918 99.2502 34.6913 98.4588C34.5907 97.6673 34.4778 96.869 34.3527 96.0637C34.2347 95.2501 34.1105 94.4565 33.98 93.6831C33.8573 92.909 33.7397 92.2011 33.6272 91.5595C33.5225 90.9172 33.4326 90.3639 33.3574 89.8996C33.2822 89.4352 33.2374 89.1096 33.2229 88.9227C33.1987 88.6111 33.2971 88.3645 33.5181 88.1828C33.7391 88.0011 34.0716 87.893 34.5155 87.8586C34.7103 87.8435 34.8753 87.8503 35.0108 87.8789C35.154 87.907 35.2721 87.9645 35.365 88.0513C35.4579 88.1381 35.5338 88.2576 35.5926 88.4098C35.6586 88.5535 35.7121 88.7374 35.753 88.9615C35.8083 89.2707 35.8615 89.6035 35.9127 89.96C35.9632 90.3087 36.0177 90.708 36.0761 91.1579C36.1423 91.6073 36.2131 92.1151 36.2883 92.6812C36.3636 93.2474 36.4533 93.8987 36.5574 94.635C36.5659 94.7441 36.5914 94.8205 36.634 94.8642C36.6765 94.9079 36.7212 94.9279 36.7679 94.9243C36.8536 94.9177 36.926 94.8415 36.9853 94.6959C37.5428 93.297 38.1563 92.2151 38.8257 91.4501C39.4945 90.6773 40.1716 90.2643 40.8571 90.2112C41.2621 90.1797 41.5908 90.2757 41.8432 90.499C42.0956 90.7224 42.2375 91.0366 42.269 91.4416C42.3028 91.8778 42.2368 92.2904 42.0711 92.6794C41.9126 93.0599 41.7019 93.425 41.4391 93.7745C41.184 94.1234 40.9002 94.4549 40.5877 94.7691C40.2829 95.0827 39.9969 95.3869 39.7299 95.6819C39.4706 95.9763 39.2539 96.2634 39.0797 96.5434C38.9127 96.8149 38.8395 97.0831 38.86 97.3479C38.8788 97.5894 39.0383 97.8277 39.3386 98.063C39.6462 98.2899 40.0783 98.5072 40.6351 98.7147C41.1913 98.9145 41.8679 99.101 42.6649 99.2743C43.4614 99.4398 44.3623 99.5893 45.3679 99.7229C45.5267 99.7497 45.6405 99.8036 45.7095 99.8844C45.7863 99.9647 45.8301 100.075 45.8409 100.215C45.8542 100.386 45.8289 100.565 45.7649 100.75C45.7015 100.943 45.6171 101.118 45.5118 101.275C45.407 101.44 45.2843 101.575 45.1435 101.68C45.0112 101.792 44.8788 101.853 44.7464 101.863C44.4815 101.884 44.1634 101.873 43.7918 101.832C43.4203 101.79 43.0155 101.723 42.5774 101.632C42.1478 101.548 41.7007 101.441 41.2363 101.313C40.7724 101.192 40.319 101.055 39.8761 100.901C39.4416 100.755 39.026 100.599 38.6292 100.434C38.2396 100.26 37.901 100.087 37.6133 99.9129C37.5239 99.8729 37.4508 99.8393 37.3939 99.8124C37.3447 99.7849 37.3007 99.7726 37.2617 99.7757C37.215 99.7793 37.1893 99.8009 37.1845 99.8404C37.1791 99.8722 37.1807 99.9426 37.1891 100.052C37.2103 100.324 37.2041 100.548 37.1707 100.723C37.145 100.897 37.0852 101.035 36.9912 101.137C36.8978 101.246 36.763 101.327 36.5869 101.38C36.4107 101.432 36.1903 101.469 35.9254 101.49C35.5749 101.517 35.3244 101.47 35.174 101.348C35.0313 101.226 34.9469 100.997 34.921 100.662ZM50.6351 86.1029C50.603 85.69 50.6975 85.3928 50.9185 85.2111C51.1389 85.0216 51.5178 84.906 52.0553 84.8643C52.25 84.8492 52.4151 84.856 52.5505 84.8847C52.6931 84.905 52.8148 84.9582 52.9155 85.0444C53.024 85.1301 53.1116 85.2486 53.1782 85.4002C53.252 85.5434 53.3174 85.7303 53.3745 85.9609C53.5241 86.6781 53.6834 87.418 53.8523 88.1806C54.0289 88.9427 54.2097 89.7083 54.3948 90.4776C54.4687 90.8245 54.6653 90.9855 54.9847 90.9607C55.0704 90.9541 55.21 90.9354 55.4035 90.9047C55.6042 90.8657 55.84 90.8239 56.1108 90.7794C56.381 90.7271 56.6706 90.6733 56.9798 90.6179C57.2967 90.562 57.6101 90.5103 57.9198 90.4627C58.2368 90.4068 58.5348 90.3602 58.814 90.3229C59.1004 90.2771 59.3527 90.2458 59.5707 90.2289C59.7421 90.2156 59.8811 90.2401 59.9878 90.3023C60.0939 90.3568 60.1785 90.4364 60.2414 90.5413C60.3116 90.6377 60.3596 90.7515 60.3855 90.8827C60.4185 91.0055 60.4401 91.1331 60.4504 91.2655C60.4595 91.3824 60.4455 91.5049 60.4084 91.6332C60.3791 91.7608 60.3295 91.8783 60.2594 91.9856C60.1966 92.0845 60.1131 92.1693 60.0088 92.2401C59.9046 92.3109 59.7824 92.3517 59.6422 92.3626C58.9646 92.4151 58.2809 92.4917 57.5913 92.5922C56.9089 92.6843 56.2277 92.792 55.5477 92.9152C55.2008 92.9892 55.0391 93.178 55.0627 93.4818C55.0645 93.5052 55.0708 93.536 55.0816 93.5744C55.0918 93.6049 55.0979 93.6319 55.0997 93.6552C55.2457 94.3256 55.3806 94.9538 55.5044 95.5397C55.636 96.1251 55.7472 96.6493 55.838 97.1124C55.9359 97.5671 56.0126 97.9491 56.0679 98.2582C56.1304 98.559 56.1656 98.76 56.1734 98.8612C56.1952 99.1416 56.186 99.3774 56.146 99.5686C56.1066 99.7675 56.0291 99.9303 55.9136 100.057C55.7986 100.191 55.6378 100.29 55.4311 100.353C55.2328 100.423 54.9779 100.47 54.6663 100.494C54.3703 100.517 54.1468 100.464 53.9957 100.335C53.8446 100.205 53.7501 99.9973 53.7122 99.7103C53.5942 98.7949 53.4486 97.8776 53.2754 96.9585C53.1017 96.0317 52.9126 95.11 52.7083 94.1933C52.6123 93.8638 52.424 93.71 52.1436 93.7317C52.1202 93.7335 52.0933 93.7395 52.0627 93.7497C52.0322 93.7599 52.0052 93.766 51.9818 93.7678C51.5074 93.9143 51.0602 94.0587 50.6402 94.2009C50.2203 94.3432 49.8282 94.4912 49.464 94.6448C49.2591 94.7312 49.0761 94.7963 48.915 94.8402C48.7532 94.8762 48.6061 94.8994 48.4737 94.9097C48.2946 94.9236 48.1561 94.8559 48.0583 94.7068C47.96 94.5499 47.9014 94.3507 47.8827 94.1092C47.876 94.0235 47.8763 93.9256 47.8834 93.8153C47.8899 93.6973 47.9123 93.5819 47.9506 93.4692C47.9805 93.3494 48.0346 93.2394 48.1131 93.1393C48.1831 93.032 48.2858 92.9417 48.4212 92.8686C48.738 92.7108 49.1637 92.5406 49.698 92.3581C50.2318 92.1678 50.8365 91.9838 51.5123 91.806C51.6651 91.755 51.781 91.6833 51.86 91.591C51.9462 91.4903 51.9824 91.3503 51.9685 91.1712C51.9655 91.1322 51.9625 91.0933 51.9594 91.0543C51.9558 91.0076 51.9444 90.9615 51.9252 90.916C51.745 90.209 51.5738 89.568 51.4117 88.9929C51.2567 88.4094 51.1201 87.9106 51.0018 87.4967C50.8912 87.0821 50.8033 86.7559 50.7378 86.518C50.6723 86.2802 50.6381 86.1418 50.6351 86.1029ZM60.2137 95.0334C60.2035 94.901 60.2076 94.7518 60.226 94.5858C60.2445 94.4198 60.2462 94.2395 60.2311 94.0447C60.2208 93.9123 60.1545 93.8156 60.0323 93.7545C59.9178 93.6929 59.7871 93.6247 59.6403 93.5499C59.4934 93.4751 59.3564 93.376 59.2293 93.2526C59.11 93.1287 59.0407 92.9421 59.0214 92.6928C59.0075 92.5137 59.0403 92.3309 59.1199 92.1445C59.2072 91.9575 59.3386 91.7828 59.5141 91.6203C59.9471 91.2419 60.3984 90.8974 60.8679 90.5867C61.3453 90.2754 61.8221 90.0073 62.2983 89.7823C62.7823 89.5567 63.2618 89.3745 63.7369 89.2358C64.212 89.0971 64.6715 89.0105 65.1155 88.9761C65.8632 88.9181 66.5751 89.0039 67.2511 89.2335C67.9344 89.4548 68.5362 89.7882 69.0565 90.2336C69.5841 90.6707 70.0132 91.2016 70.3437 91.8264C70.6815 92.4427 70.8787 93.117 70.9355 93.8492C70.9911 94.5658 70.8921 95.2591 70.6384 95.9291C70.392 96.5908 70.0344 97.1827 69.5655 97.7049C69.0967 98.2271 68.5304 98.655 67.8667 98.9886C67.2114 99.3293 66.506 99.529 65.7505 99.5876C65.0105 99.645 64.3154 99.5736 63.6652 99.3733C63.0149 99.1729 62.4431 98.8725 61.9497 98.472C61.4557 98.0636 61.0569 97.5695 60.7534 96.9897C60.4492 96.4021 60.2693 95.75 60.2137 95.0334ZM65.8444 97.4646C66.1715 97.4393 66.5052 97.3468 66.8455 97.1872C67.1857 97.0276 67.4903 96.812 67.7591 96.5404C68.0352 96.2604 68.2525 95.9301 68.411 95.5495C68.5773 95.1683 68.6427 94.7479 68.607 94.2884C68.5708 93.821 68.4513 93.3915 68.2485 92.9997C68.0457 92.608 67.781 92.2759 67.4542 92.0035C67.1347 91.7227 66.7619 91.5126 66.3357 91.3732C65.9174 91.2333 65.4707 91.1818 64.9956 91.2186C64.131 91.2857 63.4864 91.5629 63.0619 92.0503C62.6368 92.5299 62.4602 93.2332 62.5321 94.1601C62.5713 94.6664 62.6819 95.1319 62.8637 95.5566C63.0527 95.9729 63.2959 96.3302 63.5933 96.6284C63.8901 96.9188 64.2285 97.1394 64.6085 97.2902C64.9962 97.4403 65.4082 97.4985 65.8444 97.4646ZM80.595 87.1524C81.1169 87.112 81.6598 87.1404 82.2237 87.2377C82.787 87.3272 83.3069 87.4632 83.7833 87.6456C84.2592 87.8203 84.6554 88.0286 84.9719 88.2704C85.2884 88.5123 85.4564 88.7579 85.4757 89.0071C85.4854 89.1317 85.4417 89.2762 85.3448 89.4404C85.2472 89.5969 85.126 89.7512 84.9811 89.9035C84.8355 90.048 84.6729 90.1743 84.4933 90.2822C84.3207 90.3818 84.1644 90.437 84.0242 90.4479C83.8373 90.4624 83.6209 90.4008 83.3751 90.2632C83.1372 90.1249 82.8707 89.9732 82.5758 89.808C82.2881 89.6344 81.9746 89.4824 81.6354 89.352C81.2962 89.2216 80.9357 89.1712 80.5541 89.2008C80.3048 89.2201 80.1032 89.2985 79.9493 89.4358C79.8026 89.5647 79.7377 89.7382 79.7546 89.9563C79.7697 90.151 79.8786 90.3424 80.0813 90.5304C80.2833 90.7106 80.5444 90.8941 80.8645 91.0809C81.1923 91.267 81.5601 91.4618 81.9676 91.6653C82.3752 91.8687 82.7918 92.0872 83.2174 92.3206C83.6507 92.5534 84.0742 92.8105 84.4879 93.0918C84.9015 93.3732 85.2744 93.6851 85.6065 94.0277C85.9465 94.3696 86.2269 94.7514 86.4476 95.1731C86.6678 95.587 86.7975 96.0471 86.8368 96.5534C86.8706 96.9896 86.8235 97.3928 86.6956 97.7632C86.5676 98.1336 86.3694 98.4585 86.1012 98.7379C85.8329 99.0173 85.5056 99.2425 85.1192 99.4135C84.7329 99.5845 84.3021 99.6885 83.827 99.7253C83.2272 99.7718 82.6669 99.7213 82.1461 99.5736C81.626 99.4337 81.1704 99.2183 80.7796 98.9273C80.3887 98.6364 80.0709 98.2771 79.8262 97.8494C79.5892 97.4211 79.4502 96.9422 79.4091 96.4125C79.356 95.7271 79.438 95.2192 79.6553 94.8889C79.8804 94.558 80.2578 94.372 80.7874 94.3309C81.1146 94.3056 81.3803 94.3476 81.5847 94.4572C81.7891 94.5667 81.8983 94.711 81.9122 94.8902C81.9194 94.9836 81.9114 95.0822 81.8881 95.1859C81.8642 95.2818 81.837 95.3857 81.8065 95.4978C81.7832 95.6015 81.7605 95.7129 81.7384 95.8322C81.7241 95.9508 81.7215 96.0686 81.7305 96.1854C81.7463 96.3879 81.8081 96.579 81.9161 96.7587C82.024 96.9384 82.1613 97.0923 82.328 97.2204C82.503 97.3558 82.6991 97.4581 82.916 97.5275C83.133 97.5968 83.3583 97.6224 83.5919 97.6043C84.2151 97.556 84.5067 97.2748 84.4668 96.7607C84.4354 96.3557 84.2461 95.9864 83.899 95.6529C83.5512 95.3115 83.1226 94.9883 82.6131 94.683C82.103 94.3699 81.5539 94.0599 80.9659 93.7529C80.3857 93.4453 79.8393 93.1194 79.3268 92.7752C78.8143 92.431 78.3817 92.057 78.0291 91.6534C77.676 91.242 77.4797 90.7831 77.4405 90.2768C77.4078 89.8562 77.4636 89.464 77.6078 89.1002C77.7598 88.7358 77.978 88.4172 78.2624 88.1444C78.5462 87.8638 78.8852 87.6377 79.2794 87.4661C79.6813 87.2938 80.1199 87.1893 80.595 87.1524ZM97.0262 93.5063C97.237 93.294 97.4514 93.1795 97.6695 93.1625C97.7941 93.1529 97.9095 93.1753 98.0156 93.2297C98.1217 93.2842 98.2422 93.3728 98.3771 93.4955C98.5078 93.6656 98.6011 93.8073 98.6569 93.9205C98.7198 94.0253 98.7556 94.1322 98.764 94.2413C98.7821 94.475 98.6825 94.706 98.4652 94.9344C98.1155 95.275 97.7322 95.5868 97.3153 95.8699C96.8979 96.1452 96.4582 96.387 95.9964 96.5952C95.5345 96.8034 95.0538 96.97 94.5541 97.0949C94.0551 97.2277 93.5563 97.3134 93.0578 97.352C92.4269 97.401 91.8286 97.3651 91.2629 97.2444C90.6977 97.1315 90.1856 96.944 89.7265 96.6819C89.2751 96.4191 88.8854 96.0928 88.5574 95.7029C88.2288 95.3053 87.982 94.8503 87.8169 94.3381C87.7298 94.1255 87.6528 93.9904 87.5856 93.9329C87.5256 93.8671 87.4295 93.8393 87.297 93.8495C87.0088 93.8719 86.7814 93.819 86.6148 93.6909C86.4481 93.5628 86.3545 93.3663 86.334 93.1014C86.3255 92.9924 86.3279 92.9217 86.341 92.8893L86.3463 92.6538C86.3635 92.3704 86.4217 92.1622 86.5211 92.0291C86.6283 91.8954 86.8026 91.8192 87.0441 91.8005L87.2193 91.7869C87.5465 91.7615 87.7645 91.5918 87.8733 91.2777C88.0731 90.7216 88.3427 90.207 88.6821 89.734C89.0216 89.261 89.4129 88.8506 89.8561 88.5028C90.2987 88.1472 90.7781 87.8632 91.2945 87.6507C91.818 87.4299 92.3563 87.298 92.9094 87.2551C93.4858 87.2104 94.0299 87.2544 94.5416 87.3871C95.0606 87.5114 95.5185 87.7071 95.9154 87.9741C96.3122 88.241 96.6312 88.565 96.8723 88.9459C97.1212 89.3263 97.2635 89.7462 97.2991 90.2058C97.3239 90.5251 97.2842 90.822 97.1802 91.0965C97.0761 91.371 96.915 91.6186 96.6971 91.8392C96.4785 92.0521 96.2066 92.2338 95.8813 92.3844C95.5639 92.5344 95.1963 92.6452 94.7787 92.7168L90.7562 93.4402C90.6004 93.4523 90.4749 93.5012 90.3797 93.5869C90.2923 93.6721 90.2537 93.7808 90.264 93.9132C90.2797 94.1158 90.3688 94.3048 90.5313 94.4802C90.7016 94.6551 90.9171 94.8068 91.1778 94.9355C91.4457 95.0558 91.7466 95.146 92.0804 95.2063C92.4219 95.266 92.768 95.2823 93.1185 95.2551C93.4534 95.2291 93.7937 95.1714 94.1394 95.0819C94.4923 94.984 94.8352 94.8595 95.1683 94.7082C95.5091 94.5564 95.8365 94.3822 96.1503 94.1854C96.4636 93.9809 96.7555 93.7545 97.0262 93.5063ZM94.1869 90.694C94.302 90.6616 94.399 90.5992 94.478 90.5069C94.5565 90.4067 94.5905 90.2905 94.5803 90.1581C94.5712 90.0412 94.5199 89.9355 94.4264 89.8409C94.3328 89.7463 94.209 89.6658 94.055 89.5993C93.9004 89.5251 93.7239 89.4722 93.5255 89.4406C93.3272 89.409 93.119 89.4016 92.9009 89.4185C92.5815 89.4433 92.258 89.5154 91.9303 89.6349C91.6026 89.7543 91.3085 89.9025 91.048 90.0794C90.7868 90.2486 90.5778 90.4332 90.421 90.6335C90.2635 90.8259 90.1917 91.0117 90.2056 91.1909C90.2195 91.37 90.3355 91.4511 90.5536 91.4342C90.686 91.4239 90.899 91.3917 91.1926 91.3376C91.4862 91.2835 91.8106 91.2231 92.1659 91.1564C92.5205 91.0818 92.8788 91.0031 93.2407 90.9202C93.6025 90.8373 93.9179 90.7619 94.1869 90.694ZM109.388 92.5475C109.598 92.3352 109.813 92.2207 110.031 92.2037C110.155 92.1941 110.271 92.2165 110.377 92.2709C110.483 92.3254 110.603 92.414 110.738 92.5367C110.869 92.7068 110.962 92.8485 111.018 92.9617C111.081 93.0665 111.117 93.1734 111.125 93.2825C111.143 93.5162 111.044 93.7472 110.826 93.9756C110.477 94.3162 110.093 94.628 109.677 94.9111C109.259 95.1864 108.82 95.4282 108.358 95.6364C107.896 95.8446 107.415 96.0112 106.915 96.1361C106.416 96.2689 105.918 96.3546 105.419 96.3932C104.788 96.4422 104.19 96.4063 103.624 96.2856C103.059 96.1727 102.547 95.9852 102.088 95.7231C101.636 95.4603 101.247 95.134 100.919 94.7441C100.59 94.3465 100.343 93.8915 100.178 93.3793C100.091 93.1667 100.014 93.0316 99.9469 92.9741C99.887 92.9083 99.7908 92.8805 99.6584 92.8907C99.3702 92.9131 99.1427 92.8602 98.9761 92.7321C98.8094 92.604 98.7158 92.4075 98.6953 92.1427C98.6868 92.0336 98.6892 91.9629 98.7023 91.9305L98.7076 91.6951C98.7248 91.4116 98.7831 91.2034 98.8824 91.0703C98.9896 90.9366 99.1639 90.8604 99.4054 90.8417L99.5806 90.8281C99.9078 90.8027 100.126 90.633 100.235 90.3189C100.434 89.7628 100.704 89.2482 101.043 88.7752C101.383 88.3022 101.774 87.8918 102.217 87.544C102.66 87.1884 103.139 86.9044 103.656 86.6919C104.179 86.4711 104.718 86.3392 105.271 86.2963C105.847 86.2516 106.391 86.2956 106.903 86.4283C107.422 86.5526 107.88 86.7483 108.277 87.0153C108.674 87.2822 108.992 87.6062 109.234 87.9871C109.483 88.3675 109.625 88.7874 109.66 89.247C109.685 89.5663 109.646 89.8632 109.541 90.1377C109.437 90.4122 109.276 90.6598 109.058 90.8804C108.84 91.0933 108.568 91.275 108.243 91.4256C107.925 91.5756 107.558 91.6864 107.14 91.758L103.118 92.4814C102.962 92.4935 102.836 92.5424 102.741 92.6281C102.654 92.7133 102.615 92.822 102.625 92.9545C102.641 93.157 102.73 93.346 102.893 93.5214C103.063 93.6963 103.278 93.848 103.539 93.9767C103.807 94.097 104.108 94.1872 104.442 94.2476C104.783 94.3073 105.129 94.3235 105.48 94.2963C105.815 94.2703 106.155 94.2126 106.501 94.1231C106.854 94.0252 107.197 93.9007 107.53 93.7495C107.87 93.5976 108.198 93.4234 108.512 93.2266C108.825 93.0221 109.117 92.7957 109.388 92.5475ZM106.548 89.7352C106.663 89.7028 106.76 89.6404 106.839 89.5481C106.918 89.4479 106.952 89.3317 106.942 89.1993C106.933 89.0824 106.881 88.9767 106.788 88.8821C106.694 88.7875 106.57 88.707 106.416 88.6406C106.262 88.5664 106.085 88.5134 105.887 88.4818C105.688 88.4502 105.48 88.4428 105.262 88.4597C104.943 88.4845 104.619 88.5566 104.292 88.6761C103.964 88.7955 103.67 88.9437 103.409 89.1206C103.148 89.2898 102.939 89.4744 102.782 89.6747C102.625 89.8671 102.553 90.0529 102.567 90.2321C102.581 90.4112 102.697 90.4923 102.915 90.4754C103.047 90.4651 103.26 90.433 103.554 90.3788C103.847 90.3247 104.172 90.2643 104.527 90.1976C104.882 90.123 105.24 90.0443 105.602 89.9614C105.964 89.8785 106.279 89.8031 106.548 89.7352ZM117.723 80.8993C117.691 80.4865 117.785 80.1892 118.006 80.0075C118.226 79.818 118.605 79.7024 119.143 79.6608C119.338 79.6456 119.503 79.6524 119.638 79.6811C119.781 79.7014 119.902 79.7546 120.003 79.8409C120.112 79.9265 120.199 80.0451 120.266 80.1966C120.34 80.3398 120.405 80.5267 120.462 80.7573C120.612 81.4745 120.771 82.2144 120.94 82.977C121.116 83.7391 121.297 84.5047 121.482 85.274C121.556 85.6209 121.753 85.7819 122.072 85.7572C122.158 85.7505 122.298 85.7318 122.491 85.7012C122.692 85.6621 122.928 85.6203 123.198 85.5758C123.469 85.5235 123.758 85.4697 124.067 85.4143C124.384 85.3584 124.698 85.3067 125.007 85.2592C125.324 85.2032 125.622 85.1566 125.902 85.1193C126.188 85.0736 126.44 85.0422 126.658 85.0253C126.83 85.012 126.969 85.0365 127.075 85.0988C127.181 85.1532 127.266 85.2329 127.329 85.3377C127.399 85.4341 127.447 85.5479 127.473 85.6791C127.506 85.8019 127.528 85.9295 127.538 86.062C127.547 86.1788 127.533 86.3013 127.496 86.4296C127.467 86.5572 127.417 86.6747 127.347 86.782C127.284 86.8809 127.201 86.9658 127.096 87.0365C126.992 87.1073 126.87 87.1481 126.73 87.159C126.052 87.2116 125.368 87.2881 124.679 87.3886C123.996 87.4807 123.315 87.5884 122.635 87.7117C122.288 87.7856 122.127 87.9744 122.15 88.2782C122.152 88.3016 122.158 88.3324 122.169 88.3708C122.179 88.4013 122.185 88.4283 122.187 88.4516C122.333 89.1221 122.468 89.7502 122.592 90.3361C122.724 90.9215 122.835 91.4457 122.926 91.9088C123.023 92.3635 123.1 92.7455 123.155 93.0546C123.218 93.3554 123.253 93.5564 123.261 93.6576C123.283 93.938 123.274 94.1738 123.234 94.365C123.194 94.564 123.117 94.7267 123.001 94.8532C122.886 94.9875 122.725 95.0862 122.519 95.1492C122.32 95.2194 122.065 95.2666 121.754 95.2908C121.458 95.3138 121.234 95.2606 121.083 95.1312C120.932 95.0019 120.838 94.7938 120.8 94.5068C120.682 93.5913 120.536 92.674 120.363 91.755C120.189 90.8281 120 89.9064 119.796 88.9897C119.7 88.6603 119.512 88.5064 119.231 88.5281C119.208 88.5299 119.181 88.536 119.15 88.5462C119.12 88.5564 119.093 88.5624 119.069 88.5642C118.595 88.7107 118.148 88.8551 117.728 88.9974C117.308 89.1396 116.916 89.2876 116.552 89.4412C116.347 89.5276 116.164 89.5928 116.003 89.6366C115.841 89.6727 115.694 89.6958 115.561 89.7061C115.382 89.72 115.244 89.6524 115.146 89.5032C115.048 89.3463 114.989 89.1471 114.97 88.9056C114.964 88.82 114.964 88.722 114.971 88.6117C114.977 88.4937 115 88.3783 115.038 88.2657C115.068 88.1458 115.122 88.0358 115.201 87.9357C115.271 87.8284 115.373 87.7382 115.509 87.665C115.826 87.5072 116.251 87.337 116.786 87.1545C117.319 86.9643 117.924 86.7802 118.6 86.6024C118.753 86.5514 118.869 86.4797 118.948 86.3874C119.034 86.2867 119.07 86.1467 119.056 85.9676C119.053 85.9287 119.05 85.8897 119.047 85.8508C119.043 85.804 119.032 85.7579 119.013 85.7124C118.833 85.0054 118.661 84.3644 118.499 83.7893C118.344 83.2058 118.208 82.707 118.089 82.2931C117.979 81.8785 117.891 81.5523 117.825 81.3145C117.76 81.0766 117.726 80.9382 117.723 80.8993ZM126.25 82.4946C126.185 81.6534 126.698 81.1905 127.788 81.1059C127.975 81.0914 128.143 81.1293 128.291 81.2197C128.439 81.3101 128.531 81.444 128.569 81.6213C128.676 82.091 128.775 82.5574 128.865 83.0205C128.956 83.4836 129.048 84.0055 129.14 84.586C129.239 85.1582 129.341 85.8241 129.447 86.5838C129.56 87.3352 129.689 88.2342 129.833 89.2809C129.841 89.3899 129.863 89.4666 129.898 89.5109C129.94 89.5546 129.985 89.5747 130.032 89.571C130.102 89.5656 130.166 89.4901 130.226 89.3444C130.445 88.7397 130.701 88.1949 130.992 87.7099C131.283 87.2172 131.603 86.7967 131.952 86.4483C132.301 86.0922 132.675 85.8163 133.075 85.6207C133.482 85.4167 133.904 85.2978 134.34 85.264C134.917 85.2193 135.451 85.3424 135.944 85.6333C136.437 85.9242 136.87 86.3568 137.244 86.9312C137.617 87.5056 137.927 88.2142 138.173 89.0571C138.418 89.8922 138.581 90.8356 138.662 91.8871C138.685 92.1753 138.68 92.4147 138.648 92.6052C138.623 92.7874 138.564 92.9369 138.471 93.0538C138.378 93.1708 138.244 93.2556 138.067 93.3085C137.892 93.3691 137.672 93.4097 137.407 93.4302C137.041 93.4586 136.771 93.4091 136.596 93.2815C136.429 93.1534 136.335 92.9414 136.312 92.6454C136.255 91.9132 136.151 91.2278 135.999 90.5892C135.855 89.9421 135.678 89.3799 135.469 88.9025C135.259 88.425 135.027 88.0513 134.771 87.7812C134.522 87.5105 134.266 87.3855 134.001 87.406C133.401 87.4525 132.839 87.9859 132.315 89.006C131.799 90.0256 131.293 91.5419 130.799 93.5549C130.751 93.7389 130.692 93.8923 130.623 94.0152C130.554 94.138 130.468 94.2388 130.365 94.3173C130.269 94.3953 130.148 94.4517 130.002 94.4865C129.856 94.5292 129.682 94.5583 129.479 94.574C129.067 94.6061 128.765 94.5511 128.573 94.4092C128.39 94.2667 128.276 94.017 128.233 93.6599C128.081 92.3082 127.895 91.0218 127.675 89.8008C127.462 88.5714 127.251 87.4634 127.041 86.4766C126.839 85.4815 126.66 84.6412 126.505 83.9559C126.357 83.2621 126.272 82.775 126.25 82.4946ZM150.047 89.3938C150.257 89.1816 150.472 89.067 150.69 89.0501C150.815 89.0404 150.93 89.0628 151.036 89.1172C151.142 89.1717 151.263 89.2603 151.398 89.3831C151.528 89.5531 151.622 89.6948 151.677 89.808C151.74 89.9128 151.776 90.0198 151.784 90.1288C151.803 90.3625 151.703 90.5935 151.486 90.822C151.136 91.1625 150.753 91.4743 150.336 91.7574C149.918 92.0327 149.479 92.2745 149.017 92.4827C148.555 92.6909 148.074 92.8575 147.575 92.9824C147.076 93.1152 146.577 93.2009 146.078 93.2395C145.447 93.2885 144.849 93.2526 144.283 93.1319C143.718 93.019 143.206 92.8315 142.747 92.5694C142.296 92.3066 141.906 91.9803 141.578 91.5904C141.249 91.1928 141.002 90.7379 140.837 90.2257C140.75 90.013 140.673 89.8779 140.606 89.8205C140.546 89.7546 140.45 89.7268 140.317 89.737C140.029 89.7594 139.802 89.7065 139.635 89.5784C139.469 89.4503 139.375 89.2538 139.354 88.989C139.346 88.8799 139.348 88.8092 139.361 88.7769L139.367 88.5414C139.384 88.2579 139.442 88.0497 139.542 87.9166C139.649 87.7829 139.823 87.7067 140.065 87.688L140.24 87.6744C140.567 87.649 140.785 87.4793 140.894 87.1652C141.094 86.6091 141.363 86.0945 141.703 85.6215C142.042 85.1485 142.433 84.7381 142.877 84.3903C143.319 84.0347 143.799 83.7507 144.315 83.5383C144.838 83.3174 145.377 83.1856 145.93 83.1427C146.506 83.098 147.05 83.1419 147.562 83.2746C148.081 83.3989 148.539 83.5946 148.936 83.8616C149.333 84.1286 149.652 84.4525 149.893 84.8335C150.142 85.2138 150.284 85.6337 150.32 86.0933C150.344 86.4126 150.305 86.7096 150.201 86.9841C150.097 87.2586 149.935 87.5061 149.718 87.7268C149.499 87.9396 149.227 88.1213 148.902 88.2719C148.584 88.4219 148.217 88.5327 147.799 88.6043L143.777 89.3277C143.621 89.3398 143.495 89.3887 143.4 89.4744C143.313 89.5596 143.274 89.6684 143.284 89.8008C143.3 90.0033 143.389 90.1923 143.552 90.3677C143.722 90.5426 143.938 90.6943 144.198 90.823C144.466 90.9433 144.767 91.0336 145.101 91.0939C145.442 91.1536 145.788 91.1698 146.139 91.1426C146.474 91.1167 146.814 91.0589 147.16 90.9694C147.513 90.8715 147.856 90.747 148.189 90.5958C148.53 90.444 148.857 90.2697 149.171 90.0729C149.484 89.8684 149.776 89.642 150.047 89.3938ZM147.207 86.5815C147.322 86.5491 147.419 86.4867 147.498 86.3944C147.577 86.2943 147.611 86.178 147.601 86.0456C147.592 85.9287 147.54 85.823 147.447 85.7284C147.353 85.6338 147.229 85.5533 147.075 85.4869C146.921 85.4127 146.744 85.3598 146.546 85.3281C146.348 85.2965 146.139 85.2891 145.921 85.3061C145.602 85.3308 145.278 85.4029 144.951 85.5224C144.623 85.6418 144.329 85.79 144.068 85.9669C143.807 86.1361 143.598 86.3208 143.441 86.521C143.284 86.7134 143.212 86.8992 143.226 87.0784C143.24 87.2575 143.356 87.3386 143.574 87.3217C143.706 87.3115 143.919 87.2793 144.213 87.2252C144.507 87.171 144.831 87.1106 145.186 87.0439C145.541 86.9693 145.899 86.8906 146.261 86.8077C146.623 86.7248 146.938 86.6494 147.207 86.5815ZM159.421 91.7462C159.286 90.7145 159.122 89.7673 158.93 88.9046C158.745 88.0335 158.561 87.2759 158.378 86.6319C158.202 85.9873 158.048 85.4664 157.915 85.0692C157.791 84.6714 157.724 84.4219 157.716 84.3207C157.705 84.1727 157.748 84.0243 157.846 83.8757C157.952 83.7264 158.087 83.5945 158.251 83.4799C158.413 83.3576 158.59 83.2577 158.78 83.1803C158.977 83.1023 159.158 83.0569 159.322 83.0443C159.454 83.034 159.569 83.0486 159.666 83.0881C159.771 83.127 159.847 83.1994 159.894 83.3054C159.944 83.4348 159.99 83.5723 160.032 83.7179C160.082 83.8551 160.134 84.0234 160.189 84.2229C160.258 84.5075 160.331 84.6467 160.409 84.6407C160.495 84.6341 160.582 84.498 160.672 84.2325C160.799 83.8621 160.944 83.5531 161.105 83.3056C161.266 83.058 161.443 82.8601 161.635 82.712C161.834 82.5555 162.041 82.4415 162.255 82.3701C162.477 82.298 162.708 82.2527 162.95 82.2339C163.682 82.1771 164.323 82.4173 164.874 82.9544C165.433 83.491 165.899 84.2933 166.272 85.3614C166.32 85.483 166.362 85.5621 166.396 85.5986C166.429 85.6273 166.466 85.6402 166.505 85.6372C166.544 85.6341 166.581 85.6156 166.618 85.5814C166.662 85.5388 166.699 85.4615 166.729 85.3494C166.877 84.8286 167.062 84.3833 167.284 84.0135C167.505 83.6358 167.74 83.3277 167.988 83.0891C168.243 82.842 168.507 82.657 168.779 82.534C169.052 82.411 169.317 82.3395 169.574 82.3196C170.049 82.2827 170.491 82.4248 170.9 82.7457C171.316 83.0582 171.7 83.5652 172.052 84.2666C172.411 84.9596 172.743 85.8507 173.047 86.9398C173.358 88.0206 173.646 89.3108 173.911 90.8104C173.944 91.231 173.838 91.533 173.594 91.7165C173.35 91.9078 173.006 92.0207 172.562 92.0551C172.274 92.0775 172.043 92.0327 171.87 91.9208C171.697 91.8088 171.591 91.6525 171.551 91.4518C171.366 90.377 171.179 89.4238 170.989 88.5922C170.806 87.7523 170.622 87.0495 170.437 86.484C170.252 85.9107 170.062 85.4788 169.867 85.1883C169.68 84.8972 169.485 84.7596 169.282 84.7753C169.181 84.7831 169.058 84.8671 168.914 85.0272C168.777 85.1866 168.639 85.4716 168.498 85.8822C168.357 86.2849 168.22 86.8363 168.086 87.5362C167.952 88.2284 167.84 89.1107 167.751 90.1833C167.727 90.483 167.6 90.72 167.371 90.8945C167.149 91.0684 166.867 91.1687 166.524 91.1953C166.127 91.2261 165.846 91.1852 165.68 91.0727C165.523 90.9595 165.425 90.7556 165.386 90.4608C165.315 89.9491 165.221 89.4432 165.104 88.9429C164.994 88.4343 164.866 87.9544 164.722 87.5033C164.576 87.0444 164.422 86.6254 164.26 86.2462C164.097 85.8592 163.93 85.5274 163.759 85.2506C163.589 84.9661 163.419 84.7481 163.25 84.5967C163.082 84.4452 162.924 84.3752 162.776 84.3866C162.581 84.4017 162.401 84.5529 162.235 84.84C162.077 85.1265 161.943 85.5247 161.834 86.0347C161.732 86.5441 161.666 87.1526 161.635 87.8603C161.603 88.5679 161.621 89.3541 161.688 90.2187C161.7 90.3667 161.715 90.5143 161.734 90.6617C161.753 90.8013 161.768 90.949 161.78 91.1048C161.799 91.3385 161.774 91.5323 161.708 91.6864C161.649 91.8398 161.553 91.9648 161.42 92.0613C161.294 92.1573 161.143 92.2278 160.966 92.2729C160.789 92.3179 160.596 92.3486 160.385 92.3649C160.191 92.38 160.034 92.3765 159.915 92.3544C159.796 92.3401 159.703 92.3081 159.637 92.2584C159.57 92.2087 159.522 92.1381 159.491 92.0464C159.461 91.9625 159.438 91.8625 159.421 91.7462ZM181.875 79.2262C182.304 79.193 182.722 79.2272 183.129 79.3288C183.537 79.4304 183.901 79.5862 184.223 79.7963C184.545 80.0065 184.808 80.2681 185.013 80.5814C185.225 80.894 185.347 81.249 185.378 81.6462C185.39 81.8098 185.364 81.9725 185.298 82.1343C185.239 82.2877 185.152 82.4277 185.037 82.5542C184.92 82.6729 184.783 82.7737 184.625 82.8565C184.474 82.9309 184.313 82.9747 184.142 82.988C184.126 82.9892 184.111 82.9943 184.096 83.0033C184.088 83.0039 184.076 83.0048 184.061 83.006C184.046 83.015 184.031 83.0201 184.015 83.0213L184.134 83.9524C184.252 85.0638 184.471 85.8657 184.791 86.358C185.119 86.8498 185.513 87.0778 185.972 87.0422C186.136 87.0295 186.279 87.0027 186.401 86.9619C186.531 86.9205 186.649 86.876 186.755 86.8286C186.868 86.7728 186.974 86.7254 187.073 86.6864C187.172 86.6474 187.272 86.624 187.373 86.6161C187.552 86.6022 187.714 86.668 187.859 86.8136C188.011 86.9585 188.096 87.14 188.113 87.3581C188.129 87.5762 188.061 87.8009 187.906 88.0323C187.76 88.2631 187.557 88.4786 187.298 88.6789C187.039 88.8714 186.742 89.0355 186.408 89.1711C186.074 89.3067 185.731 89.3881 185.381 89.4153C184.773 89.4625 184.22 89.2546 183.722 88.7917C183.223 88.3211 182.839 87.6065 182.568 86.648C182.51 86.4958 182.441 86.4227 182.363 86.4288C182.27 86.436 182.192 86.4891 182.129 86.588C181.433 87.6215 180.668 88.4174 179.834 88.9758C178.999 89.5264 178.157 89.8346 177.308 89.9004C176.911 89.9312 176.548 89.9006 176.22 89.8085C175.891 89.7165 175.606 89.5741 175.364 89.3813C175.129 89.1801 174.937 88.9324 174.789 88.6383C174.648 88.3358 174.563 87.9937 174.533 87.6121C174.491 87.0746 174.564 86.5009 174.752 85.8908C174.948 85.2801 175.226 84.6708 175.586 84.063C175.946 83.4552 176.371 82.8698 176.86 82.3069C177.357 81.7433 177.882 81.2402 178.436 80.7977C178.997 80.3545 179.572 79.9925 180.162 79.7118C180.751 79.431 181.322 79.2691 181.875 79.2262ZM181.803 83.2987C181.923 83.023 182.037 82.8222 182.144 82.6963C182.252 82.5626 182.413 82.4678 182.628 82.4119C182.797 82.3753 182.879 82.3141 182.872 82.2284C182.867 82.1661 182.839 82.1017 182.787 82.0352C182.623 81.8442 182.453 81.681 182.278 81.5457C182.103 81.4026 181.879 81.3417 181.606 81.3628C181.31 81.3858 180.986 81.4971 180.633 81.6969C180.28 81.8966 179.924 82.1554 179.565 82.4732C179.213 82.7826 178.868 83.1346 178.53 83.529C178.199 83.9151 177.909 84.3099 177.658 84.7133C177.407 85.1167 177.211 85.512 177.068 85.8992C176.926 86.2863 176.866 86.6279 176.889 86.9239C176.91 87.1887 176.996 87.3897 177.147 87.5268C177.307 87.6633 177.511 87.7219 177.761 87.7026C178.399 87.6531 179.07 87.2602 179.773 86.5239C180.476 85.7877 181.153 84.7126 181.803 83.2987ZM194.1 79.3829C194.474 79.3539 194.83 79.3576 195.17 79.3939C195.509 79.4225 195.818 79.4612 196.096 79.5102C196.373 79.5513 196.612 79.5955 196.812 79.6427C197.01 79.6821 197.153 79.6985 197.238 79.6919C197.309 79.6864 197.372 79.6463 197.429 79.5713C197.485 79.4886 197.557 79.4008 197.644 79.3078C197.73 79.2149 197.849 79.1274 197.999 79.0452C198.149 78.9552 198.352 78.9002 198.609 78.8803C198.905 78.8573 199.145 78.9171 199.329 79.0596C199.511 79.1943 199.612 79.3746 199.629 79.6005C199.85 82.4513 199.941 84.8813 199.901 86.8904C199.86 88.8917 199.67 90.5324 199.33 91.8125C198.991 93.0926 198.496 94.0399 197.847 94.6545C197.197 95.2691 196.377 95.6147 195.388 95.6915C194.936 95.7265 194.457 95.6618 193.951 95.4974C193.452 95.3323 192.988 95.1058 192.558 94.8179C192.129 94.5377 191.767 94.2171 191.473 93.856C191.186 93.4942 191.029 93.1381 191.002 92.7876C190.993 92.6708 191.045 92.5296 191.157 92.3642C191.27 92.1987 191.41 92.035 191.578 91.8732C191.745 91.7113 191.923 91.5721 192.109 91.4558C192.296 91.3394 192.46 91.2758 192.6 91.2649C192.748 91.2534 192.877 91.3022 192.987 91.4112C193.098 91.528 193.204 91.6726 193.303 91.8451C193.411 92.017 193.519 92.2045 193.629 92.4075C193.739 92.6184 193.872 92.8079 194.026 92.9762C194.18 93.1445 194.363 93.2792 194.574 93.3803C194.786 93.4892 195.044 93.5319 195.348 93.5083C197.046 93.3766 197.842 90.7055 197.736 85.495C197.717 85.2614 197.642 85.1497 197.51 85.1599C197.401 85.1684 197.319 85.2296 197.265 85.3434C196.61 86.3894 195.811 87.1998 194.868 87.7744C193.933 88.3406 192.869 88.67 191.677 88.7624C191.124 88.8053 190.608 88.7631 190.128 88.6358C189.647 88.5006 189.224 88.2984 188.858 88.029C188.5 87.7512 188.211 87.4131 187.992 87.0148C187.772 86.6087 187.643 86.1564 187.605 85.6579C187.567 85.1672 187.615 84.6776 187.749 84.1892C187.891 83.6923 188.101 83.2216 188.38 82.7768C188.666 82.3236 189.014 81.901 189.422 81.5088C189.83 81.1167 190.282 80.7722 190.776 80.4753C191.269 80.1705 191.795 79.926 192.353 79.7417C192.918 79.549 193.5 79.4294 194.1 79.3829ZM191.873 86.5845C192.94 86.5017 193.891 86.091 194.727 85.3522C195.563 84.6057 196.246 83.5654 196.777 82.2313C196.789 82.1833 196.798 82.1474 196.804 82.1234C196.809 82.0916 196.811 82.0602 196.809 82.029C196.802 81.9511 196.714 81.8757 196.544 81.8027C196.374 81.7297 196.154 81.6723 195.884 81.6305C195.615 81.5888 195.307 81.5617 194.961 81.5493C194.623 81.5286 194.282 81.5315 193.939 81.5581C193.386 81.601 192.86 81.7358 192.36 81.9626C191.861 82.1894 191.424 82.474 191.051 82.8164C190.678 83.1588 190.386 83.538 190.176 83.9539C189.965 84.3699 189.876 84.7921 189.91 85.2205C189.945 85.6801 190.141 86.0332 190.497 86.2798C190.861 86.5258 191.32 86.6274 191.873 86.5845ZM203.077 75.8656C202.851 75.8831 202.635 75.8686 202.427 75.822C202.227 75.767 202.049 75.6868 201.892 75.5815C201.742 75.4677 201.618 75.3324 201.519 75.1754C201.421 75.0185 201.364 74.8427 201.349 74.648C201.324 74.3208 201.432 74.046 201.673 73.8236C201.922 73.6005 202.265 73.4721 202.701 73.4382C202.903 73.4225 203.101 73.4464 203.294 73.5098C203.487 73.5654 203.658 73.65 203.808 73.7638C203.965 73.8769 204.093 74.0159 204.192 74.1806C204.291 74.3375 204.347 74.5055 204.361 74.6847C204.387 75.0196 204.283 75.2941 204.049 75.5082C203.822 75.7139 203.498 75.833 203.077 75.8656ZM201.753 79.5533C201.732 79.2807 201.831 79.0496 202.052 78.8601C202.279 78.6623 202.588 78.5482 202.977 78.518C203.678 78.4636 204.071 78.6761 204.155 79.1554C204.212 79.4879 204.273 79.8633 204.337 80.2815C204.408 80.6991 204.478 81.1442 204.546 81.6169C204.621 82.0812 204.69 82.5657 204.753 83.0701C204.823 83.5662 204.888 84.0587 204.95 84.5476C205.01 85.0287 205.066 85.4946 205.117 85.9451C205.167 86.3957 205.207 86.8079 205.236 87.1818C205.266 87.5712 205.149 87.8742 204.884 88.0907C204.626 88.3065 204.232 88.435 203.703 88.4761C203.461 88.4948 203.266 88.4512 203.117 88.3453C202.976 88.2465 202.897 88.088 202.88 87.8699C202.797 86.7951 202.691 85.7924 202.564 84.8619C202.445 83.9231 202.325 83.09 202.206 82.3626C202.095 81.6347 201.993 81.0313 201.901 80.5526C201.816 80.0656 201.767 79.7324 201.753 79.5533ZM210.813 77.5576C211.218 77.5262 211.616 77.5541 212.007 77.6413C212.398 77.7286 212.745 77.8623 213.049 78.0424C213.36 78.2142 213.615 78.4216 213.814 78.6648C214.013 78.9001 214.122 79.1502 214.143 79.4151C214.156 79.5864 214.134 79.7566 214.076 79.9256C214.018 80.0868 213.936 80.2343 213.829 80.368C213.721 80.4939 213.596 80.6015 213.454 80.6909C213.312 80.7725 213.159 80.8196 212.995 80.8323C212.816 80.8462 212.647 80.7927 212.489 80.6717C212.33 80.543 212.158 80.4035 211.974 80.2532C211.798 80.0946 211.599 79.9572 211.378 79.8411C211.165 79.7166 210.914 79.6655 210.626 79.6878C210.345 79.7096 210.097 79.7954 209.882 79.9454C209.666 80.0953 209.49 80.2971 209.353 80.5506C209.223 80.7957 209.128 81.0852 209.068 81.419C209.014 81.7444 209.003 82.0979 209.032 82.4796C209.117 83.5701 209.388 84.3875 209.846 84.9319C210.302 85.4685 210.916 85.7068 211.688 85.647C212.054 85.6186 212.361 85.5361 212.609 85.3993C212.864 85.2619 213.084 85.1156 213.268 84.9602C213.46 84.8043 213.633 84.6616 213.787 84.5321C213.942 84.4026 214.105 84.3312 214.276 84.3179C214.37 84.3106 214.465 84.3345 214.564 84.3896C214.661 84.4369 214.749 84.5045 214.826 84.5925C214.911 84.6722 214.981 84.7647 215.036 84.8701C215.099 84.975 215.135 85.0819 215.143 85.1909C215.163 85.448 215.055 85.7228 214.819 86.0153C214.591 86.3073 214.287 86.5816 213.907 86.8383C213.527 87.0872 213.097 87.3008 212.617 87.4791C212.145 87.6567 211.679 87.7634 211.22 87.799C210.604 87.8468 210.03 87.7698 209.498 87.5682C208.965 87.3744 208.496 87.0817 208.089 86.6901C207.682 86.2907 207.351 85.8032 207.095 85.2275C206.846 84.6513 206.694 84.0048 206.638 83.2882C206.578 82.5093 206.635 81.784 206.811 81.1122C206.993 80.4398 207.269 79.8503 207.637 79.3437C208.013 78.8288 208.47 78.4171 209.011 78.1088C209.55 77.7927 210.151 77.609 210.813 77.5576Z" fill="white"/>
<path d="M223.378 80C243.045 73.6667 276.078 49.2 250.878 2M250.878 2L249.378 9M250.878 2L257.378 5" stroke="white" stroke-width="2.5" stroke-linecap="round" stroke-linejoin="round"/>
</svg>
