 <svg  version="1.0" xmlns="http://www.w3.org/2000/svg"  width="300.000000pt" height="300.000000pt" viewBox="0 0 300.000000 300.000000"  preserveAspectRatio="xMidYMid meet">  <g transform="translate(0.000000,300.000000) scale(0.100000,-0.100000)" fill="#ffffff" stroke="none"> <path d="M1046 2000 c-60 -12 -83 -54 -49 -92 15 -17 15 -20 -10 -46 -25 -26 -26 -34 -29 -137 -3 -94 -5 -110 -20 -113 -27 -5 -40 31 -29 80 21 96 -20 178 -90 178 -90 0 -99 -22 -99 -233 0 -151 2 -166 21 -191 16 -21 29 -26 63 -26 23 0 45 -2 48 -5 3 -3 -8 -20 -23 -36 -29 -31 -29 -33 -29 -154 0 -109 2 -125 21 -149 16 -20 29 -26 61 -26 33 0 45 6 71 36 l32 35 127 -2 c114 -3 129 -1 149 16 21 20 22 20 33 1 37 -64 80 -73 120 -25 14 17 26 38 27 47 0 11 4 8 10 -8 17 -42 40 -60 77 -60 20 0 55 -9 79 -21 58 -28 115 -19 160 26 32 32 35 33 90 26 32 -4 63 -10 70 -14 6 -4 47 -12 89 -17 77 -10 78 -10 106 17 33 32 35 46 8 80 -15 19 -17 30 -10 43 6 10 10 29 10 42 0 13 7 32 15 42 8 11 15 30 15 42 0 29 -44 64 -81 64 -15 0 -34 3 -42 6 -15 5 -11 19 20 73 2 2 23 -15 48 -38 41 -37 51 -42 87 -39 31 2 46 10 62 31 19 25 21 45 24 201 l4 172 -33 28 c-27 23 -38 27 -68 21 -41 -8 -71 -31 -71 -55 0 -32 -12 -28 -54 16 -23 24 -50 44 -59 44 -14 0 -14 4 5 35 l21 36 -22 23 -22 24 -424 1 c-234 0 -435 2 -447 5 -13 2 -41 1 -62 -4z m312 -33 c8 4 13 2 9 -3 -7 -11 38 -13 49 -1 12 12 26 8 18 -5 -6 -10 -4 -10 7 0 18 17 29 15 29 -5 1 -17 1 -17 14 0 15 20 56 23 75 5 11 -10 13 -10 7 0 -4 6 -3 12 1 12 5 0 15 -6 22 -12 11 -10 13 -10 7 0 -5 8 1 12 17 12 19 0 25 -5 25 -25 0 -23 -4 -25 -42 -23 -22 0 -44 6 -48 12 -5 7 -8 7 -8 -2 0 -17 -150 -15 -150 2 0 8 -2 8 -8 0 -4 -6 -22 -15 -39 -19 -31 -6 -33 -5 -33 23 0 33 9 47 23 33 5 -5 16 -7 25 -4z m-229 -11 c11 -8 13 -8 8 0 -4 7 2 12 18 12 16 0 25 -6 25 -16 0 -13 3 -12 15 4 15 19 15 19 30 0 13 -17 15 -18 15 -3 0 11 8 17 25 17 25 0 32 -15 17 -36 -10 -14 -153 -15 -146 0 3 6 -1 3 -10 -7 -10 -14 -21 -17 -38 -11 -13 4 -35 7 -50 6 -21 -2 -28 2 -28 16 0 10 3 21 6 24 10 10 99 5 113 -6z m555 2 c-6 -10 -5 -10 8 -1 19 16 100 15 91 -1 -3 -6 0 -5 8 2 18 16 29 15 29 -3 0 -8 5 -15 10 -15 6 0 10 -4 10 -10 0 -5 -9 -10 -19 -10 -11 0 -23 5 -26 10 -3 6 -12 10 -18 10 -8 0 -8 -3 1 -9 8 -4 -12 -8 -47 -9 -34 0 -63 4 -67 9 -8 13 3 39 16 39 6 0 8 -6 4 -12z m245 0 c11 -10 13 -10 7 0 -4 6 -3 12 1 12 5 0 15 -6 22 -12 11 -11 12 -10 6 1 -5 9 -3 12 6 9 8 -3 14 -13 14 -23 0 -10 -6 -20 -14 -23 -9 -3 -11 0 -5 9 6 11 5 12 -7 3 -20 -15 -61 -16 -53 -1 5 8 3 8 -7 0 -21 -21 -39 -15 -39 12 0 21 5 25 28 25 15 0 34 -6 41 -12z m-567 -71 c51 8 52 -7 2 -50 -39 -34 -45 -36 -51 -20 -3 10 -15 30 -25 45 -20 29 -8 43 23 27 9 -4 32 -6 51 -2z m558 -5 c0 -3 -7 -13 -16 -23 -14 -16 -17 -16 -57 4 -33 16 -38 21 -24 26 20 7 97 2 97 -7z m-450 -20 c0 -21 7 -32 24 -40 15 -7 27 -23 31 -44 4 -18 16 -56 26 -83 15 -40 26 -53 51 -63 25 -9 29 -15 20 -24 -9 -9 -17 -7 -35 10 -12 12 -37 27 -55 33 -18 6 -32 17 -32 25 0 8 -7 14 -16 14 -9 0 -27 9 -41 20 -29 22 -73 27 -73 8 0 -7 23 -25 50 -40 28 -16 50 -32 50 -37 0 -11 -50 -21 -106 -21 -23 0 -46 -4 -49 -10 -3 -5 -22 -10 -42 -10 l-36 0 21 23 c12 13 22 31 22 40 0 10 12 23 28 29 39 18 64 49 58 73 -7 28 28 69 54 62 25 -6 41 13 33 41 -3 13 -1 22 6 22 6 0 11 -13 11 -28z m124 -39 c-4 -38 -8 -70 -10 -72 -2 -2 -10 11 -18 30 -8 19 -24 46 -36 61 -27 35 -19 48 31 48 l40 0 -7 -67z m44 13 c-7 -25 -16 -46 -20 -46 -10 0 -10 0 3 41 6 19 13 40 15 48 3 8 7 12 10 9 2 -3 -1 -26 -8 -52z m-389 4 c27 0 28 -2 26 -47 -1 -44 -4 -48 -26 -48 -17 0 -25 -6 -27 -22 -3 -18 2 -23 17 -23 15 0 21 -6 21 -24 0 -13 -7 -26 -15 -30 -8 -3 -15 -12 -15 -21 0 -12 -13 -15 -59 -15 l-60 0 1 -30 1 -30 84 0 84 0 -3 -50 c-3 -52 -20 -73 -26 -32 -3 17 -8 21 -22 17 -10 -3 -21 -1 -25 5 -8 14 -35 -6 -35 -26 0 -15 -72 -28 -130 -22 -30 3 -41 0 -45 -12 -3 -9 -23 -27 -45 -41 -22 -13 -38 -29 -36 -35 3 -7 6 -67 7 -135 l3 -124 -42 -3 -42 -3 0 135 0 136 31 0 c17 0 28 4 24 10 -3 6 0 10 9 10 20 0 74 47 90 79 11 20 13 65 8 204 l-5 177 79 2 c43 0 89 0 100 -1 14 -1 24 6 29 21 l8 23 4 -22 c3 -17 11 -23 32 -23z m523 -10 c49 0 63 -4 83 -25 27 -26 33 -82 15 -130 -9 -23 -7 -27 16 -35 34 -13 35 -13 33 13 -1 12 -1 59 -1 105 l2 82 44 0 c50 0 54 -4 121 -113 22 -37 46 -66 53 -67 9 0 12 24 12 89 l0 88 38 -2 c20 -1 40 -3 45 -4 9 -1 9 -228 0 -313 l-6 -58 -38 0 c-45 0 -50 5 -114 103 -28 42 -53 77 -57 77 -5 0 -8 -40 -8 -90 l0 -90 -37 0 c-61 0 -66 9 -61 86 l5 69 -36 17 c-19 10 -37 15 -39 13 -3 -2 3 -20 12 -39 16 -33 46 -114 46 -122 0 -11 -101 -3 -105 9 -30 85 -48 127 -56 127 -5 0 -9 -31 -9 -70 l0 -70 -45 0 -45 0 1 173 c1 94 4 176 6 181 3 4 19 5 35 2 17 -3 57 -6 90 -6z m-899 -52 c2 -29 1 -63 -4 -76 -5 -13 -9 -48 -9 -78 0 -47 3 -55 18 -53 9 1 38 1 65 0 l47 -1 0 -52 c0 -48 -3 -54 -27 -66 -18 -8 -30 -9 -37 -2 -5 5 -45 10 -88 10 l-78 0 0 185 0 185 54 0 53 0 6 -52z m572 -189 c95 17 145 15 145 -6 0 -27 26 -94 33 -87 17 18 -8 -35 -30 -61 -20 -24 -23 -26 -19 -9 5 17 1 23 -19 28 -14 4 -30 4 -34 1 -5 -3 -14 9 -20 25 -6 18 -17 30 -28 30 -10 0 -28 3 -39 6 -18 5 -24 0 -33 -28 -10 -31 -15 -34 -41 -30 -17 2 -36 -1 -44 -7 -7 -6 -16 -8 -19 -4 -11 10 -8 93 2 93 5 0 12 13 16 29 6 28 8 29 37 19 22 -8 48 -8 93 1z m363 -143 c48 -30 67 -52 52 -61 -6 -4 -17 -1 -25 5 -9 7 -31 10 -52 8 -36 -5 -113 16 -113 31 0 4 9 7 21 8 12 1 31 9 43 17 28 20 31 20 74 -8z m-567 -26 l24 -19 -55 0 -55 0 24 19 c13 11 27 20 31 20 4 0 18 -9 31 -20z m291 -50 c25 -30 23 -75 -4 -100 -12 -11 -16 -20 -10 -20 7 0 17 -10 22 -22 8 -21 9 -20 9 10 1 45 24 96 52 116 27 18 91 21 121 5 27 -15 58 -85 58 -137 0 -58 -24 -100 -67 -119 -64 -26 -124 0 -153 67 -10 24 -10 24 -7 -7 3 -29 1 -33 -20 -33 -13 0 -26 0 -30 0 -5 0 -10 21 -13 47 l-5 48 -49 3 -49 3 6 -55 c5 -54 5 -56 -19 -56 -35 0 -39 3 -40 25 -3 85 0 80 -48 77 -42 -4 -44 -5 -42 -35 1 -30 -1 -32 -32 -32 l-33 0 -2 100 -2 100 57 3 c32 2 67 -2 78 -8 19 -10 20 -9 14 14 -6 24 -3 25 43 29 94 8 145 1 165 -23z m591 0 c5 -5 6 -17 2 -29 -4 -15 -13 -20 -28 -17 -83 17 -87 17 -87 -8 0 -26 17 -36 62 -36 25 0 29 -3 26 -22 -3 -21 -8 -23 -50 -20 -47 4 -48 3 -48 -26 0 -28 2 -30 59 -36 55 -6 58 -8 53 -31 -2 -14 -5 -25 -6 -25 -16 0 -172 22 -176 25 -4 3 -1 37 6 77 7 40 13 80 13 88 1 31 -18 -13 -35 -83 l-16 -68 -36 3 c-32 3 -37 7 -52 48 -24 64 -30 82 -41 108 -14 36 -11 42 24 42 31 0 35 -4 45 -39 7 -21 12 -48 12 -60 0 -46 18 -18 24 39 l7 60 34 0 c25 0 35 5 35 15 0 13 12 14 83 9 45 -4 86 -10 90 -14z m-1091 -75 c9 -33 17 -58 18 -55 1 3 7 30 13 60 l12 55 43 3 42 3 0 -100 0 -101 -31 0 -31 0 4 55 c6 67 -9 63 -18 -5 -4 -31 -12 -51 -20 -51 -8 -1 -19 -2 -26 -3 -7 -1 -20 28 -29 64 l-18 65 6 -67 6 -68 -30 0 -30 0 -6 96 c-4 53 -5 99 -3 103 3 4 22 6 43 6 38 0 38 0 55 -60z"/> <path d="M1120 1726 c0 -23 4 -26 35 -26 23 0 38 6 42 15 7 21 2 25 -41 32 -34 5 -36 4 -36 -21z"/> <path d="M1404 1343 c-17 -3 -21 -11 -20 -36 2 -31 4 -32 42 -30 21 2 45 5 52 8 19 7 14 43 -7 55 -20 10 -29 11 -67 3z"/> <path d="M1623 1315 l-28 -26 25 7 c24 6 24 6 8 -13 -24 -26 -23 -29 11 -43 25 -10 35 -8 77 14 27 14 44 25 37 26 -7 0 -22 11 -35 24 -36 38 -62 41 -95 11z m52 -5 c-19 -8 -19 -9 2 -9 30 -1 40 -21 17 -38 -27 -19 -49 -12 -50 17 -1 34 4 40 29 39 21 0 21 -1 2 -9z"/> <path d="M1240 1291 c0 -24 39 -36 47 -14 6 15 -12 33 -34 33 -7 0 -13 -8 -13 -19z"/> <path d="M1580 1244 c0 -7 -2 -19 -6 -27 -3 -9 6 -19 26 -27 17 -7 33 -17 36 -22 4 -5 -8 -2 -26 7 -47 24 -47 12 0 -19 45 -29 70 -35 50 -11 -9 10 -9 15 -1 15 6 0 11 12 11 28 -1 22 -9 31 -45 48 -32 15 -45 17 -45 8z"/> <path d="M1721 1214 c-19 -27 -36 -57 -38 -67 -3 -16 -1 -16 25 -3 48 26 60 38 32 30 l-25 -7 23 19 c17 14 23 28 20 48 -3 28 -3 28 -37 -20z"/> </g> </svg> 