<?xml version="1.0" encoding="UTF-8"?>
<svg version="1.1" xmlns="http://www.w3.org/2000/svg" width="500" height="500">
<path d="M0 0 C7.26 0 14.52 0 22 0 C22.33 11.55 22.66 23.1 23 35 C25.64 33.02 28.28 31.04 31 29 C39.40280024 26.01836121 48.18938431 26.0100591 56.671875 28.82421875 C62.69253146 31.8648523 66.5049088 37.90088817 69 44 C69.93034613 47.08380464 70.16348956 49.90760103 70.1875 53.125 C70.20167969 53.99382812 70.21585938 54.86265625 70.23046875 55.7578125 C70 58 70 58 68 60 C68.66 60.33 69.32 60.66 70 61 C69.22141917 66.88033419 66.12056516 69.95833928 62 74 C54.5840716 79.47366144 44.80428589 78.52667712 36 78 C33.000803 77.28649809 30.76807022 76.38403511 28 75 C28 74.34 28 73.68 28 73 C27.0409375 72.5359375 27.0409375 72.5359375 26.0625 72.0625 C24 71 24 71 23 70 C22.67 72.31 22.34 74.62 22 77 C14.68042501 77.32170195 7.36032914 77.62084168 0.03857422 77.88867188 C-1.75679447 77.95445109 -3.55208621 78.02251069 -5.34716797 78.09570312 C-14.89914705 78.46665377 -20.63664852 77.52182559 -28 71 C-28.66 70.34 -29.32 69.68 -30 69 C-30.556875 69.48210937 -31.11375 69.96421875 -31.6875 70.4609375 C-41.24064941 78.36810509 -49.81128852 78.8631491 -62 78 C-66.94031301 77.00374903 -71.22488458 75.44684451 -75 72 C-75.4846875 72.34933594 -75.969375 72.69867188 -76.46875 73.05859375 C-77.1390625 73.51363281 -77.809375 73.96867187 -78.5 74.4375 C-79.1496875 74.88996094 -79.799375 75.34242188 -80.46875 75.80859375 C-86.26222678 78.53546168 -93.19425079 78.18175706 -99.5 78.1875 C-100.20769531 78.19974609 -100.91539062 78.21199219 -101.64453125 78.22460938 C-110.98285116 78.2502172 -117.55173239 75.5515898 -125 70 C-125.85464844 69.39478516 -125.85464844 69.39478516 -126.7265625 68.77734375 C-133.73714204 63.47446948 -137.78429865 55.1086481 -139.47265625 46.625 C-140.9696548 35.61259686 -137.81528727 26.34829994 -132 17 C-125.735187 9.02060661 -117.81590484 4.32832852 -108 2 C-105.24319129 1.7140028 -102.52017406 1.66608681 -99.75 1.6875 C-99.00709717 1.69168945 -98.26419434 1.69587891 -97.4987793 1.70019531 C-88.96304018 1.87411088 -80.61258394 3.25749289 -74 9 C-73.04998251 11.36594158 -72.86524917 12.56273542 -73.62084961 15.01464844 C-73.96124268 15.7059082 -74.30163574 16.39716797 -74.65234375 17.109375 C-75.01650391 17.86347656 -75.38066406 18.61757812 -75.75585938 19.39453125 C-76.14580078 20.17183594 -76.53574219 20.94914062 -76.9375 21.75 C-77.32357422 22.54277344 -77.70964844 23.33554688 -78.10742188 24.15234375 C-79.06107367 26.10674125 -80.0291649 28.05408106 -81 30 C-82.32 30 -83.64 30 -85 30 C-85.66 29.34 -86.32 28.68 -87 28 C-94.15362103 25.47519258 -100.18402821 25.14150669 -107.203125 28.01171875 C-110.99158563 30.0953721 -112.67148873 33.0144662 -114 37 C-114.54030113 42.72719196 -113.6516353 45.55882194 -110 50 C-105.94522998 53.9893705 -103.20103554 54.54542627 -97.5625 54.5 C-96.28503906 54.5103125 -95.00757813 54.520625 -93.69140625 54.53125 C-89.36773215 53.90900695 -87.28458381 52.8609201 -84 50 C-82.34430768 47.11972882 -82.34430768 47.11972882 -81.3125 43.9375 C-78.89046433 37.20407439 -78.89046433 37.20407439 -76 35 C-75.34 35 -74.68 35 -74 35 C-73.67 34.01 -73.34 33.02 -73 32 C-65.76099725 26.51590701 -56.70616757 26.30260673 -48 27 C-40.26853105 28.22544897 -35.43130151 31.46249986 -30 37 C-29.59910156 36.52949219 -29.19820313 36.05898437 -28.78515625 35.57421875 C-23.65256905 29.95281372 -18.94101401 27.380078 -11.30859375 26.79296875 C-7.55637645 26.73288958 -4.58032129 26.80655957 -1 28 C-0.67 18.76 -0.34 9.52 0 0 Z M-57.125 48.125 C-59.30208333 49.92708333 -59.30208333 49.92708333 -59.4375 53.0625 C-59.293125 54.031875 -59.14875 55.00125 -59 56 C-56.15173402 58.36692966 -56.15173402 58.36692966 -52.8125 57.625 C-51.884375 57.41875 -50.95625 57.2125 -50 57 C-49.67 54.69 -49.34 52.38 -49 50 C-52.73370746 46.81134761 -52.73370746 46.81134761 -57.125 48.125 Z M-8.125 48.125 C-10.30208333 49.92708333 -10.30208333 49.92708333 -10.4375 53.0625 C-10.293125 54.031875 -10.14875 55.00125 -10 56 C-7.15173402 58.36692966 -7.15173402 58.36692966 -3.8125 57.625 C-2.884375 57.41875 -1.95625 57.2125 -1 57 C-0.67 54.69 -0.34 52.38 0 50 C-3.73370746 46.81134761 -3.73370746 46.81134761 -8.125 48.125 Z " fill="#0C0C04" transform="translate(260,172)"/>
<path d="M0 0 C1.29349365 0.00523682 2.5869873 0.01047363 3.91967773 0.01586914 C4.9496714 0.01799156 4.9496714 0.01799156 6.00047302 0.02015686 C8.20144949 0.0257706 10.40232557 0.03832532 12.60327148 0.05102539 C14.09220231 0.05603863 15.58113473 0.06060184 17.07006836 0.06469727 C20.72700223 0.07574446 24.38387707 0.09301826 28.04077148 0.11352539 C27.46190139 3.3862854 26.68070903 6.28462202 25.36889648 9.33618164 C25.03374023 10.1231543 24.69858398 10.91012695 24.35327148 11.72094727 C24.00264648 12.53112305 23.65202148 13.34129883 23.29077148 14.17602539 C22.60817184 15.7709457 21.92588509 17.36599996 21.24389648 18.96118164 C20.70478638 20.21729248 20.70478638 20.21729248 20.15478516 21.4987793 C19.01892522 24.16480164 17.90463129 26.83896365 16.79467773 29.51586914 C14.59800634 34.80095088 12.36187936 40.06841741 10.11499023 45.33227539 C9.58372025 46.57786476 9.58372025 46.57786476 9.04171753 47.84861755 C7.57335744 51.29098228 6.10485918 54.73328209 4.6328125 58.17407227 C0.22952974 68.46976588 -4.08729896 78.78982525 -8.18867493 89.21008301 C-10.92431438 96.13514407 -13.92519118 102.92818092 -17.00219727 109.70727539 C-18.95995327 114.06295402 -20.7907109 118.46818341 -22.61865234 122.87963867 C-24.9606116 128.52917288 -27.334557 134.16518099 -29.70922852 139.80102539 C-30.20293945 140.97858398 -30.69665039 142.15614258 -31.20532227 143.36938477 C-31.67583008 144.48506836 -32.14633789 145.60075195 -32.63110352 146.75024414 C-33.05488281 147.75788818 -33.47866211 148.76553223 -33.9152832 149.80371094 C-34.95922852 152.11352539 -34.95922852 152.11352539 -35.95922852 153.11352539 C-38.17778116 153.20136081 -40.39911348 153.22047148 -42.61938477 153.21118164 C-43.61608437 153.20905922 -43.61608437 153.20905922 -44.63291931 153.20689392 C-46.76256751 153.20128057 -48.89211191 153.18872593 -51.02172852 153.17602539 C-52.46248221 153.1710121 -53.90323755 153.1664489 -55.34399414 153.16235352 C-58.88243954 153.15130684 -62.4208239 153.13403331 -65.95922852 153.11352539 C-65.42415364 148.29028323 -64.43681391 144.33852447 -62.48266602 139.90258789 C-61.7286853 138.17105469 -61.7286853 138.17105469 -60.95947266 136.40454102 C-60.41776062 135.18251985 -59.87601187 133.96051494 -59.33422852 132.73852539 C-58.50742159 130.84766642 -57.68366887 128.95549482 -56.85993958 127.06329346 C-56.31601726 125.81460281 -55.7710918 124.56634863 -55.22514343 123.31854248 C-53.09281734 118.44247855 -51.03100058 113.54137089 -49.02172852 108.61352539 C-48.7469165 107.94200439 -48.47210449 107.2704834 -48.18896484 106.57861328 C-47.44439529 104.75745811 -46.70174606 102.93551817 -45.95922852 101.11352539 C-42.75293507 93.26812612 -39.38677171 85.50642205 -35.90087891 77.78173828 C-33.80185684 73.10576135 -31.85293468 68.38819557 -29.96630859 63.62280273 C-28.33008689 59.54593323 -26.57889271 55.51988537 -24.83422852 51.48852539 C-18.00890725 35.63403728 -11.30275872 19.72601199 -5.01782227 3.64868164 C-3.55114502 0.13623318 -3.55114502 0.13623318 0 0 Z " fill="#EDF750" transform="translate(369.959228515625,173.886474609375)"/>
<path d="M0 0 C0.14483042 4.43715855 0.23391752 8.87371277 0.3125 13.3125 C0.35439453 14.57513672 0.39628906 15.83777344 0.43945312 17.13867188 C0.45556641 18.34716797 0.47167969 19.55566406 0.48828125 20.80078125 C0.51446533 21.91622314 0.54064941 23.03166504 0.56762695 24.1809082 C0 27 0 27 -2.28417969 28.79101562 C-4.49446671 29.77495497 -6.66101196 30.73861149 -8.94140625 31.54296875 C-9.68092529 31.80843506 -10.42044434 32.07390137 -11.18237305 32.34741211 C-11.96781494 32.62464111 -12.75325684 32.90187012 -13.5625 33.1875 C-23.80996637 36.87707217 -33.91028728 40.90150572 -44 45 C-34.95525443 49.52355418 -25.85226879 53.21927421 -16.2578125 56.4128418 C-3.15994551 60.84005449 -3.15994551 60.84005449 0 64 C0.08758003 65.99964982 0.10696576 68.0023611 0.09765625 70.00390625 C0.09282227 71.82631836 0.09282227 71.82631836 0.08789062 73.68554688 C0.07532227 75.60463867 0.07532227 75.60463867 0.0625 77.5625 C0.05798828 78.84576172 0.05347656 80.12902344 0.04882812 81.45117188 C0.03699545 84.63416022 0.02051068 87.81705762 0 91 C-3.33084312 92.13713261 -5.01299793 91.90116191 -8.21875 90.515625 C-9.05486816 90.16274414 -9.89098633 89.80986328 -10.75244141 89.44628906 C-11.65913574 89.05151367 -12.56583008 88.65673828 -13.5 88.25 C-15.47565556 87.41451878 -17.45226743 86.58129636 -19.4296875 85.75 C-20.48639648 85.30398438 -21.54310547 84.85796875 -22.63183594 84.3984375 C-29.741898 81.44639086 -36.92999905 78.68878897 -44.10351562 75.89550781 C-51.44548418 73.02801633 -58.7342004 70.05487137 -66 67 C-68.14032422 66.10735138 -70.28095364 65.21543424 -72.421875 64.32421875 C-78.28125 61.8828125 -84.140625 59.44140625 -90 57 C-90 49.41 -90 41.82 -90 34 C-83.51978946 30.75989473 -77.4238015 27.88945442 -70.6875 25.4375 C-60.482298 21.64058664 -50.43103882 17.50554371 -40.3894043 13.30053711 C-33.56980811 10.45094551 -26.72021891 7.72019546 -19.8125 5.09155273 C-15.68570814 3.48991329 -11.67928553 1.66604583 -7.65625 -0.1796875 C-4.62455941 -1.11594489 -3.03536946 -0.71693141 0 0 Z " fill="#EDF750" transform="translate(112,198)"/>
<path d="M0 0 C6.74266667 1.12377778 6.74266667 1.12377778 10.1796875 2.63671875 C11.31253174 3.12676392 11.31253174 3.12676392 12.46826172 3.62670898 C13.26248535 3.97677002 14.05670898 4.32683105 14.875 4.6875 C20.82712328 7.25677418 26.78096146 9.72540952 32.875 11.9375 C40.10554195 14.57621644 47.14355209 17.60498455 54.20019531 20.67456055 C60.26116749 23.2961363 66.36754938 25.69727014 72.5703125 27.95947266 C78.19218473 30.0252179 83.58600003 32.4433889 89 35 C89 42.59 89 50.18 89 58 C86.628125 59.051875 84.25625 60.10375 81.8125 61.1875 C81.09553955 61.5074292 80.3785791 61.8273584 79.63989258 62.15698242 C74.33914091 64.49080769 68.95625547 66.56905076 63.54516602 68.63208008 C57.8667324 70.8231319 52.232703 73.12218089 46.59710693 75.42053223 C44.51349242 76.26997939 42.4289537 77.1171258 40.34423828 77.96386719 C33.96563275 80.55656817 27.59320864 83.16214005 21.23828125 85.8125 C19.73575806 86.43656738 19.73575806 86.43656738 18.20288086 87.07324219 C16.37458485 87.83404567 14.54841069 88.59997738 12.72485352 89.37207031 C11.91588623 89.70819336 11.10691895 90.04431641 10.2734375 90.390625 C9.58685059 90.67969727 8.90026367 90.96876953 8.19287109 91.26660156 C6 92 6 92 0 93 C0 83.43 0 73.86 0 64 C8.93023256 59.53488372 8.93023256 59.53488372 12.36328125 58.50390625 C17.41246694 56.90172954 22.28481957 54.93791238 27.1875 52.9375 C32.41750802 50.80878128 37.6111435 48.70220835 43 47 C36.88053396 43.34012939 30.82595151 40.66447428 24.0625 38.4375 C22.3028532 37.84010703 20.54373119 37.2411659 18.78515625 36.640625 C17.9564502 36.35896484 17.12774414 36.07730469 16.27392578 35.78710938 C10.67807712 33.85013105 5.29358077 31.64679038 0 29 C0 19.43 0 9.86 0 0 Z " fill="#EDF850" transform="translate(393,197)"/>
<path d="M0 0 C5.28 0 10.56 0 16 0 C16 15.84 16 31.68 16 48 C22.27 48 28.54 48 35 48 C34.505 44.535 34.505 44.535 34 41 C34.4344255 35.8990038 35.53459997 31.55256137 39.1015625 27.7734375 C44.69494309 23.34610368 48.63349679 21.84174445 55.8125 21.75 C57.01519531 21.72421875 58.21789062 21.6984375 59.45703125 21.671875 C65.92828436 22.27119723 69.74800995 25.26206824 74 30 C74.495 30.99 74.495 30.99 75 32 C75.44730469 31.44570313 75.89460938 30.89140625 76.35546875 30.3203125 C77.26232422 29.23363281 77.26232422 29.23363281 78.1875 28.125 C78.77917969 27.40570313 79.37085938 26.68640625 79.98046875 25.9453125 C84.07028706 22.00579699 88.04896009 21.74222313 93.5625 21.8125 C94.67753906 21.81894531 95.79257813 21.82539063 96.94140625 21.83203125 C99.48334912 21.97162709 101.55933245 22.37404056 104 23 C104.495 22.505 104.495 22.505 105 22 C107.16480797 21.9010706 109.33293785 21.870289 111.5 21.875 C112.6859375 21.87242187 113.871875 21.86984375 115.09375 21.8671875 C118 22 118 22 119 23 C119.08861992 25.8116338 119.11522355 28.59858255 119.09765625 31.41015625 C119.0962413 32.25219101 119.09482635 33.09422577 119.09336853 33.96177673 C119.08775263 36.66205335 119.07519748 39.36224828 119.0625 42.0625 C119.05748705 43.88867068 119.05292379 45.71484266 119.04882812 47.54101562 C119.03777804 52.02737542 119.02050279 56.51367384 119 61 C117.28103516 60.96519531 117.28103516 60.96519531 115.52734375 60.9296875 C113.9974024 60.91091521 112.46745394 60.89271659 110.9375 60.875 C109.80924805 60.84986328 109.80924805 60.84986328 108.65820312 60.82421875 C103.68673877 60.78117577 99.72768659 61.47608303 95 63 C89.54513447 63.18328348 84.55377162 62.0711483 80 59 C77.625 55.8125 77.625 55.8125 76 53 C75.69449219 53.47050781 75.38898438 53.94101562 75.07421875 54.42578125 C71.39784412 59.42772195 67.98176271 61.29523899 61.94921875 62.63671875 C55.22304877 63.46524035 49.20287437 62.70125174 43 60 C43 59.34 43 58.68 43 58 C42.38125 57.731875 41.7625 57.46375 41.125 57.1875 C39 56 39 56 37 53 C36.67 55.64 36.34 58.28 36 61 C24.12 61 12.24 61 0 61 C0 40.87 0 20.74 0 0 Z M52.125 33.375 C50.90513167 34.80762811 50.90513167 34.80762811 51 36 C54.3 36 57.6 36 61 36 C60.67 35.01 60.34 34.02 60 33 C55.84523856 31.77936307 55.84523856 31.77936307 52.125 33.375 Z M91.625 36.625 C89.5246273 39.69477548 89.46706165 41.34556561 90 45 C90.83333333 47.5 90.83333333 47.5 93 49 C96.57577233 49.66300779 99.75895557 49.65930485 103 47.9375 C104.60856522 44.82090489 104.42213381 42.43737531 104 39 C102.52006844 36.43661311 102.52006844 36.43661311 100 35 C96.3282913 34.38804855 94.71186432 34.51293494 91.625 36.625 Z M50 45 C51.5 49 51.5 49 54 50 C58.34443828 50.42074523 58.34443828 50.42074523 62.0625 48.4375 C64 47 64 47 66.4375 47.1875 C69.02026199 48.00642453 71.50982176 48.93278075 74 50 C74 48.35 74 46.7 74 45 C66.08 45 58.16 45 50 45 Z " fill="#000000" transform="translate(133,252)"/>
<path d="M0 0 C4.95 0 9.9 0 15 0 C15 22.77 15 45.54 15 69 C10.38 69 5.76 69 1 69 C1 67.68 1 66.36 1 65 C0.071875 65.639375 -0.85625 66.27875 -1.8125 66.9375 C-7.85091161 70.84470751 -13.98374607 70.84693243 -21 70 C-27.79179385 67.17098571 -31.02513754 61.43600052 -34 55 C-34.495 56.010625 -34.99 57.02125 -35.5 58.0625 C-38.17091486 62.74613999 -42.55910205 67.9535506 -47.87207031 69.56933594 C-55.25411316 71.06336113 -66.05561009 71.86731927 -72.75 68.0625 C-77.4110194 64.35075 -82.56183713 57.7181249 -83.2734375 51.6796875 C-83.5264736 44.69199823 -82.63036993 40.31678155 -78 35 C-73.23300134 30.02236652 -68.87919825 27.37059338 -61.8515625 26.69921875 C-52.82799644 26.66644551 -45.76078088 27.42194292 -39 34 C-37.22360858 36.27692159 -35.61479172 38.60088088 -34 41 C-33.63648438 40.48050781 -33.27296875 39.96101563 -32.8984375 39.42578125 C-29.07818982 34.12641204 -25.40903404 29.13634468 -19 27 C-16.8359375 26.76171875 -16.8359375 26.76171875 -14.375 26.6875 C-13.57835937 26.65011719 -12.78171875 26.61273438 -11.9609375 26.57421875 C-9 27 -9 27 0 31 C0 20.77 0 10.54 0 0 Z M-61.125 44.125 C-63.30208333 45.92708333 -63.30208333 45.92708333 -63.4375 49.0625 C-63.293125 50.031875 -63.14875 51.00125 -63 52 C-60.15173402 54.36692966 -60.15173402 54.36692966 -56.8125 53.625 C-55.884375 53.41875 -54.95625 53.2125 -54 53 C-53.67 50.69 -53.34 48.38 -53 46 C-56.73370746 42.81134761 -56.73370746 42.81134761 -61.125 44.125 Z M-12.125 44.125 C-14.30208333 45.92708333 -14.30208333 45.92708333 -14.4375 49.0625 C-14.293125 50.031875 -14.14875 51.00125 -14 52 C-11.15173402 54.36692966 -11.15173402 54.36692966 -7.8125 53.625 C-6.884375 53.41875 -5.95625 53.2125 -5 53 C-4.67 50.69 -4.34 48.38 -4 46 C-7.73370746 42.81134761 -7.73370746 42.81134761 -12.125 44.125 Z " fill="#EAF44F" transform="translate(264,176)"/>
<path d="M0 0 C1.32 1.32 2.64 2.64 4 4 C2.02 7.96 0.04 11.92 -2 16 C-3.27875 15.505 -4.5575 15.01 -5.875 14.5 C-13.07860184 12.12518621 -20.194884 11.94355156 -27.24609375 14.94921875 C-31.46692135 17.47795511 -34.07120988 21.54441059 -36 26 C-37.31368922 33.10775007 -35.01267356 39.14994434 -31 45 C-25.42391625 49.75320537 -19.74256854 50.36430884 -12.62109375 50.27734375 C-9.30511972 49.92647317 -6.91176595 48.562411 -4 47 C-1.29346307 47.85497194 -0.22246102 48.64793706 1.30078125 51.05859375 C1.63464844 51.84363281 1.96851563 52.62867188 2.3125 53.4375 C2.65925781 54.21996094 3.00601563 55.00242188 3.36328125 55.80859375 C4 58 4 58 3 61 C-5.1932576 66.25208821 -16.12398879 67.25914526 -25.5 65.25 C-37.71017129 60.88922454 -45.13177337 55.91813211 -51 44 C-54.08180336 36.22665407 -54.48114231 27.58574311 -51.90234375 19.6015625 C-46.75075477 8.69393143 -39.28593786 1.9293148 -27.97509766 -2.41259766 C-19.40304695 -4.96196156 -7.90137409 -4.10381445 0 0 Z " fill="#ECF750" transform="translate(178,181)"/>
<path d="M0 0 C1.93166016 0.01740234 1.93166016 0.01740234 3.90234375 0.03515625 C5.19269531 0.04417969 6.48304688 0.05320312 7.8125 0.0625 C8.81152344 0.07410156 9.81054688 0.08570313 10.83984375 0.09765625 C11.16984375 0.75765625 11.49984375 1.41765625 11.83984375 2.09765625 C12.63261719 1.61232422 12.63261719 1.61232422 13.44140625 1.1171875 C18.58011658 -1.06718285 25.71688851 -0.86883974 31.0234375 0.7734375 C32.65234375 1.59765625 32.65234375 1.59765625 34.83984375 3.09765625 C34.83984375 3.75765625 34.83984375 4.41765625 34.83984375 5.09765625 C35.82984375 5.42765625 36.81984375 5.75765625 37.83984375 6.09765625 C41.88118483 11.69335929 42.31817476 17.3363828 41.83984375 24.09765625 C40.79097958 30.07618202 38.48368017 34.23939387 33.83984375 38.09765625 C27.75344905 41.49579631 21.54333563 41.63749117 14.83984375 40.09765625 C13.51984375 39.43765625 12.19984375 38.77765625 10.83984375 38.09765625 C10.83984375 44.69765625 10.83984375 51.29765625 10.83984375 58.09765625 C5.88984375 58.09765625 0.93984375 58.09765625 -4.16015625 58.09765625 C-4.18271202 50.68305262 -4.20107409 43.2684676 -4.21196842 35.85383701 C-4.21719607 32.41125277 -4.22429156 28.96869313 -4.2355957 25.52612305 C-4.2484986 21.57210582 -4.25338543 17.61809869 -4.2578125 13.6640625 C-4.26297379 12.42241837 -4.26813507 11.18077423 -4.27345276 9.90150452 C-4.27352829 8.76039719 -4.27360382 7.61928986 -4.27368164 6.44360352 C-4.27590225 5.43322525 -4.27812286 4.42284698 -4.28041077 3.3818512 C-4.09220031 -0.19314454 -3.66935867 0.1133918 0 0 Z M10.83984375 18.09765625 C10.83984375 21.07692601 11.67286301 22.75441806 12.96484375 25.41015625 C14.85962711 27.43877513 14.85962711 27.43877513 18.33984375 27.53515625 C21.69736713 27.35491186 21.69736713 27.35491186 23.71484375 25.97265625 C25.35024976 23.24697957 25.77616175 21.28175602 25.83984375 18.09765625 C24.43106279 15.10749195 24.43106279 15.10749195 21.83984375 13.09765625 C16.45676599 11.95232056 14.00646147 13.77954118 10.83984375 18.09765625 Z " fill="#000000" transform="translate(258.16015625,273.90234375)"/>
<path d="M0 0 C1.29349365 0.00523682 2.5869873 0.01047363 3.91967773 0.01586914 C4.9496714 0.01799156 4.9496714 0.01799156 6.00047302 0.02015686 C8.20144949 0.0257706 10.40232557 0.03832532 12.60327148 0.05102539 C14.09220231 0.05603863 15.58113473 0.06060184 17.07006836 0.06469727 C20.72700223 0.07574446 24.38387707 0.09301826 28.04077148 0.11352539 C27.46190139 3.3862854 26.68070903 6.28462202 25.36889648 9.33618164 C25.03374023 10.1231543 24.69858398 10.91012695 24.35327148 11.72094727 C24.00264648 12.53112305 23.65202148 13.34129883 23.29077148 14.17602539 C22.60817184 15.7709457 21.92588509 17.36599996 21.24389648 18.96118164 C20.70478638 20.21729248 20.70478638 20.21729248 20.15478516 21.4987793 C19.01892522 24.16480164 17.90463129 26.83896365 16.79467773 29.51586914 C14.59800634 34.80095088 12.36187936 40.06841741 10.11499023 45.33227539 C9.58372025 46.57786476 9.58372025 46.57786476 9.04171753 47.84861755 C7.57335744 51.29098228 6.10485918 54.73328209 4.6328125 58.17407227 C0.22952974 68.46976588 -4.08729896 78.78982525 -8.18867493 89.21008301 C-10.92431438 96.13514407 -13.92519118 102.92818092 -17.00219727 109.70727539 C-18.95995327 114.06295402 -20.7907109 118.46818341 -22.61865234 122.87963867 C-24.9606116 128.52917288 -27.334557 134.16518099 -29.70922852 139.80102539 C-30.20293945 140.97858398 -30.69665039 142.15614258 -31.20532227 143.36938477 C-31.67583008 144.48506836 -32.14633789 145.60075195 -32.63110352 146.75024414 C-33.05488281 147.75788818 -33.47866211 148.76553223 -33.9152832 149.80371094 C-34.95922852 152.11352539 -34.95922852 152.11352539 -35.95922852 153.11352539 C-38.17778116 153.20136081 -40.39911348 153.22047148 -42.61938477 153.21118164 C-43.61608437 153.20905922 -43.61608437 153.20905922 -44.63291931 153.20689392 C-46.76256751 153.20128057 -48.89211191 153.18872593 -51.02172852 153.17602539 C-52.46248221 153.1710121 -53.90323755 153.1664489 -55.34399414 153.16235352 C-58.88243954 153.15130684 -62.4208239 153.13403331 -65.95922852 153.11352539 C-65.42415364 148.29028323 -64.43681391 144.33852447 -62.48266602 139.90258789 C-61.7286853 138.17105469 -61.7286853 138.17105469 -60.95947266 136.40454102 C-60.41776062 135.18251985 -59.87601187 133.96051494 -59.33422852 132.73852539 C-58.50742159 130.84766642 -57.68366887 128.95549482 -56.85993958 127.06329346 C-56.31601726 125.81460281 -55.7710918 124.56634863 -55.22514343 123.31854248 C-53.09281734 118.44247855 -51.03100058 113.54137089 -49.02172852 108.61352539 C-48.7469165 107.94200439 -48.47210449 107.2704834 -48.18896484 106.57861328 C-47.44439529 104.75745811 -46.70174606 102.93551817 -45.95922852 101.11352539 C-42.75293507 93.26812612 -39.38677171 85.50642205 -35.90087891 77.78173828 C-33.80185684 73.10576135 -31.85293468 68.38819557 -29.96630859 63.62280273 C-28.33008689 59.54593323 -26.57889271 55.51988537 -24.83422852 51.48852539 C-18.00890725 35.63403728 -11.30275872 19.72601199 -5.01782227 3.64868164 C-3.55114502 0.13623318 -3.55114502 0.13623318 0 0 Z M-0.95922852 4.11352539 C-2.36172852 7.37227539 -3.76422852 10.63102539 -5.20922852 13.98852539 C-5.64267578 14.99383301 -6.07612305 15.99914062 -6.52270508 17.03491211 C-8.77316241 22.27543763 -10.94516849 27.53922877 -13.0480957 32.84057617 C-14.2972448 35.95675465 -15.62272104 39.0337473 -16.95922852 42.11352539 C-18.65803405 46.05339857 -20.32999241 49.99435694 -21.89672852 53.98852539 C-23.59142874 58.29207948 -25.45562573 62.51305825 -27.33422852 66.73852539 C-29.73870424 72.15579192 -31.93488837 77.60603104 -33.95922852 83.17602539 C-36.04990422 88.90362011 -38.42386177 94.39967836 -41.06811523 99.90014648 C-46.27820493 110.84954194 -50.68755955 122.17397486 -55.3059082 133.3815918 C-55.74580078 134.4442627 -56.18569336 135.50693359 -56.63891602 136.60180664 C-57.03578613 137.56256104 -57.43265625 138.52331543 -57.84155273 139.51318359 C-58.95922852 142.11352539 -58.95922852 142.11352539 -60.10424805 144.27050781 C-61.16964117 146.22848365 -61.16964117 146.22848365 -60.95922852 149.11352539 C-53.36922852 149.11352539 -45.77922852 149.11352539 -37.95922852 149.11352539 C-35.27040788 143.42859033 -32.79964745 137.81691597 -30.77172852 131.86352539 C-27.80019786 123.31683722 -24.11230136 115.09757732 -20.45922852 106.82446289 C-18.32195237 101.97474659 -16.26895706 97.09407967 -14.24047852 92.19799805 C-11.55163022 85.72488269 -8.80081036 79.27770442 -6.06469727 72.82446289 C-3.36627475 66.45466551 -0.69275642 60.07590611 1.93896484 53.67822266 C2.91188647 51.4135336 3.95860545 49.23263111 5.10327148 47.05102539 C7.10637283 43.16500879 8.52674403 39.14080344 9.98217773 35.02368164 C12.28894102 28.68221062 15.00001234 22.49800243 17.69311523 16.31274414 C17.96913574 15.6763501 18.24515625 15.03995605 18.52954102 14.38427734 C19.3173987 12.57108383 20.11059962 10.76021483 20.90405273 8.94946289 C22.16478878 6.31333298 22.16478878 6.31333298 22.04077148 4.11352539 C14.45077148 4.11352539 6.86077148 4.11352539 -0.95922852 4.11352539 Z " fill="#0D0D04" transform="translate(369.959228515625,173.886474609375)"/>
<path d="M0 0 C0.14483042 4.43715855 0.23391752 8.87371277 0.3125 13.3125 C0.35439453 14.57513672 0.39628906 15.83777344 0.43945312 17.13867188 C0.45556641 18.34716797 0.47167969 19.55566406 0.48828125 20.80078125 C0.51446533 21.91622314 0.54064941 23.03166504 0.56762695 24.1809082 C0 27 0 27 -2.28417969 28.79101562 C-4.49446671 29.77495497 -6.66101196 30.73861149 -8.94140625 31.54296875 C-9.68092529 31.80843506 -10.42044434 32.07390137 -11.18237305 32.34741211 C-11.96781494 32.62464111 -12.75325684 32.90187012 -13.5625 33.1875 C-23.80996637 36.87707217 -33.91028728 40.90150572 -44 45 C-34.95525443 49.52355418 -25.85226879 53.21927421 -16.2578125 56.4128418 C-3.15994551 60.84005449 -3.15994551 60.84005449 0 64 C0.08758003 65.99964982 0.10696576 68.0023611 0.09765625 70.00390625 C0.09282227 71.82631836 0.09282227 71.82631836 0.08789062 73.68554688 C0.07532227 75.60463867 0.07532227 75.60463867 0.0625 77.5625 C0.05798828 78.84576172 0.05347656 80.12902344 0.04882812 81.45117188 C0.03699545 84.63416022 0.02051068 87.81705762 0 91 C-3.33084312 92.13713261 -5.01299793 91.90116191 -8.21875 90.515625 C-9.05486816 90.16274414 -9.89098633 89.80986328 -10.75244141 89.44628906 C-11.65913574 89.05151367 -12.56583008 88.65673828 -13.5 88.25 C-15.47565556 87.41451878 -17.45226743 86.58129636 -19.4296875 85.75 C-20.48639648 85.30398438 -21.54310547 84.85796875 -22.63183594 84.3984375 C-29.741898 81.44639086 -36.92999905 78.68878897 -44.10351562 75.89550781 C-51.44548418 73.02801633 -58.7342004 70.05487137 -66 67 C-68.14032422 66.10735138 -70.28095364 65.21543424 -72.421875 64.32421875 C-78.28125 61.8828125 -84.140625 59.44140625 -90 57 C-90 49.41 -90 41.82 -90 34 C-83.51978946 30.75989473 -77.4238015 27.88945442 -70.6875 25.4375 C-60.482298 21.64058664 -50.43103882 17.50554371 -40.3894043 13.30053711 C-33.56980811 10.45094551 -26.72021891 7.72019546 -19.8125 5.09155273 C-15.68570814 3.48991329 -11.67928553 1.66604583 -7.65625 -0.1796875 C-4.62455941 -1.11594489 -3.03536946 -0.71693141 0 0 Z M-11.18359375 5.57421875 C-12.02301514 5.90953613 -12.86243652 6.24485352 -13.72729492 6.59033203 C-14.6216626 6.95239746 -15.51603027 7.31446289 -16.4375 7.6875 C-17.35184814 8.05472168 -18.26619629 8.42194336 -19.20825195 8.80029297 C-23.75497153 10.63871574 -28.25387277 12.52522313 -32.6875 14.625 C-37.17215317 16.7333511 -41.75373229 18.34163288 -46.4375 19.9375 C-52.651336 22.05679974 -58.40233063 24.56536662 -64.2265625 27.62109375 C-67.8028213 29.39914918 -71.46203519 30.74400268 -75.234375 32.04296875 C-78.84743648 33.29325132 -82.42015753 34.65755907 -86 36 C-86 41.94 -86 47.88 -86 54 C-79.61844687 57.22457808 -79.61844687 57.22457808 -73.125 60 C-72.27035156 60.33515625 -71.41570312 60.6703125 -70.53515625 61.015625 C-69.69855469 61.34046875 -68.86195312 61.6653125 -68 62 C-63.18466867 63.88836523 -58.39421205 65.82551044 -53.63671875 67.85546875 C-45.16634113 71.46683673 -36.72120371 74.89532165 -28.01953125 77.9140625 C-23.22873273 79.63701462 -18.64940249 81.76501956 -14.0390625 83.9140625 C-10.69357359 85.42447311 -8.75980801 86 -5 86 C-5 79.07 -5 72.14 -5 65 C-9.6200634 63.48609078 -9.6200634 63.48609078 -14.24243164 61.97924805 C-18.60316878 60.53794217 -22.79448404 58.85609299 -27 57 C-36.53383669 52.93409906 -46.13798885 49.1984901 -56 46 C-53.5620856 44.37472374 -51.60515348 43.33919271 -48.9296875 42.265625 C-48.12394287 41.94182861 -47.31819824 41.61803223 -46.48803711 41.28442383 C-45.62573486 40.94306396 -44.76343262 40.6017041 -43.875 40.25 C-42.98498291 39.89510498 -42.09496582 39.54020996 -41.17797852 39.17456055 C-34.78567353 36.64800499 -28.34096782 34.32563105 -21.84155273 32.09228516 C-16.0492234 30.07810735 -10.53395377 27.65006237 -5 25 C-5 18.07 -5 11.14 -5 4 C-7.41553207 4 -8.93895188 4.67526368 -11.18359375 5.57421875 Z " fill="#0C0D04" transform="translate(112,198)"/>
<path d="M0 0 C6.74266667 1.12377778 6.74266667 1.12377778 10.1796875 2.63671875 C11.31253174 3.12676392 11.31253174 3.12676392 12.46826172 3.62670898 C13.26248535 3.97677002 14.05670898 4.32683105 14.875 4.6875 C20.82712328 7.25677418 26.78096146 9.72540952 32.875 11.9375 C40.10554195 14.57621644 47.14355209 17.60498455 54.20019531 20.67456055 C60.26116749 23.2961363 66.36754938 25.69727014 72.5703125 27.95947266 C78.19218473 30.0252179 83.58600003 32.4433889 89 35 C89 42.59 89 50.18 89 58 C86.628125 59.051875 84.25625 60.10375 81.8125 61.1875 C81.09553955 61.5074292 80.3785791 61.8273584 79.63989258 62.15698242 C74.33914091 64.49080769 68.95625547 66.56905076 63.54516602 68.63208008 C57.8667324 70.8231319 52.232703 73.12218089 46.59710693 75.42053223 C44.51349242 76.26997939 42.4289537 77.1171258 40.34423828 77.96386719 C33.96563275 80.55656817 27.59320864 83.16214005 21.23828125 85.8125 C19.73575806 86.43656738 19.73575806 86.43656738 18.20288086 87.07324219 C16.37458485 87.83404567 14.54841069 88.59997738 12.72485352 89.37207031 C11.91588623 89.70819336 11.10691895 90.04431641 10.2734375 90.390625 C9.58685059 90.67969727 8.90026367 90.96876953 8.19287109 91.26660156 C6 92 6 92 0 93 C0 83.43 0 73.86 0 64 C8.93023256 59.53488372 8.93023256 59.53488372 12.36328125 58.50390625 C17.41246694 56.90172954 22.28481957 54.93791238 27.1875 52.9375 C32.41750802 50.80878128 37.6111435 48.70220835 43 47 C36.88053396 43.34012939 30.82595151 40.66447428 24.0625 38.4375 C22.3028532 37.84010703 20.54373119 37.2411659 18.78515625 36.640625 C17.9564502 36.35896484 17.12774414 36.07730469 16.27392578 35.78710938 C10.67807712 33.85013105 5.29358077 31.64679038 0 29 C0 19.43 0 9.86 0 0 Z M4 6 C4 12.6 4 19.2 4 26 C9.87254416 29.06393608 15.64010665 31.71507631 21.88671875 33.90625 C25.58719482 35.20629178 29.26387893 36.56368537 32.9375 37.9375 C33.95384521 38.31757202 33.95384521 38.31757202 34.99072266 38.70532227 C41.05563821 40.99038934 47.04173653 43.44968268 53 46 C45.93880351 50.70746433 37.93112847 53.4578636 29.8984375 56.0390625 C26.4238208 57.19102437 23.05430325 58.53139459 19.66796875 59.91796875 C14.47610371 62.02360069 9.23183751 63.99631755 4 66 C4 72.93 4 79.86 4 87 C8.7289998 87 9.84114991 86.86072435 13.6875 84.75 C17.71511244 82.55681272 21.81585278 80.83651057 26.07592773 79.16015625 C31.17282893 77.1379074 36.22854802 75.01551783 41.29226685 72.91186523 C71.89119503 60.20776456 71.89119503 60.20776456 85 56 C85 49.73 85 43.46 85 37 C82.89625 36.2575 82.89625 36.2575 80.75 35.5 C69.81287444 31.51899963 58.8373384 27.35535998 48.3125 22.375 C43.27874726 20.01860875 38.10345827 18.24630621 32.8503418 16.45410156 C26.14757237 14.13239719 19.648334 11.39356405 13.15625 8.53979492 C12.39570313 8.20955322 11.63515625 7.87931152 10.8515625 7.5390625 C10.17947754 7.24209473 9.50739258 6.94512695 8.81494141 6.63916016 C6.84908984 5.83391518 6.84908984 5.83391518 4 6 Z " fill="#0E0F04" transform="translate(393,197)"/>
<path d="M0 0 C3.93373262 3.59166892 7.8059437 7.69308312 9 13 C9 15.64 9 18.28 9 21 C-0.9 21 -10.8 21 -21 21 C-19.34922098 24.75170424 -19.34922098 24.75170424 -17 28 C-12.66413041 28.46583723 -9.09779589 28.66378356 -5.3125 26.375 C-3 25 -3 25 0 25.6875 C0.99 26.120625 1.98 26.55375 3 27 C3.94875 27.37125 4.8975 27.7425 5.875 28.125 C6.57625 28.41375 7.2775 28.7025 8 29 C6.64664405 32.08859947 5.19113751 34.007964 2.625 36.1875 C2.03976562 36.69667969 1.45453125 37.20585937 0.8515625 37.73046875 C-3.37300964 40.62706358 -8.42128865 40.24866351 -13.375 40.3125 C-14.1175 40.34150391 -14.86 40.37050781 -15.625 40.40039062 C-21.83836178 40.47174549 -25.28743625 38.59084615 -29.828125 34.25390625 C-30.29734375 33.69574219 -30.7665625 33.13757813 -31.25 32.5625 C-31.72953125 32.00691406 -32.2090625 31.45132813 -32.703125 30.87890625 C-36.54371583 25.31467676 -36.85377756 19.55161936 -36 13 C-33.70440438 6.15592189 -29.26254497 1.48610853 -23 -2 C-15.83958221 -4.39166704 -6.45046062 -4.10978714 0 0 Z " fill="#E9F44F" transform="translate(317,206)"/>
<path d="M0 0 C4.37288136 2.42937853 4.37288136 2.42937853 6 5 C6.49729298 8.39298858 6.35676148 11.5975526 6 15 C5.34 15 4.68 15 4 15 C3.67 15.99 3.34 16.98 3 18 C-0.50317094 19.75158547 -4.18694726 19.6837198 -8 19 C-11.63715985 15.95666217 -12.82298645 14.12108584 -13.5625 9.4375 C-12.91122095 5.45746138 -11.871325 3.78928714 -9 1 C-5.61670875 -0.12776375 -3.54843366 -0.41746278 0 0 Z M-6.125 5.125 C-8.30208333 6.92708333 -8.30208333 6.92708333 -8.4375 10.0625 C-8.293125 11.031875 -8.14875 12.00125 -8 13 C-5.15173402 15.36692966 -5.15173402 15.36692966 -1.8125 14.625 C-0.884375 14.41875 0.04375 14.2125 1 14 C1.33 11.69 1.66 9.38 2 7 C-1.73370746 3.81134761 -1.73370746 3.81134761 -6.125 5.125 Z " fill="#111206" transform="translate(209,215)"/>
<path d="M0 0 C3 1.9375 3 1.9375 5 5 C5.91437353 9.47476605 5.48987035 12.90892513 3.625 17.0625 C0.14407659 19.63175299 -2.39362869 19.71977117 -6.6484375 19.46875 C-9 19 -9 19 -11.625 17.125 C-13.57813672 12.6860529 -13.90870021 8.76866572 -13 4 C-9.62372273 -0.43136392 -5.26163946 -1.18811214 0 0 Z M-7.125 5.125 C-9.30208333 6.92708333 -9.30208333 6.92708333 -9.4375 10.0625 C-9.293125 11.031875 -9.14875 12.00125 -9 13 C-6.15173402 15.36692966 -6.15173402 15.36692966 -2.8125 14.625 C-1.884375 14.41875 -0.95625 14.2125 0 14 C0.33 11.69 0.66 9.38 1 7 C-2.73370746 3.81134761 -2.73370746 3.81134761 -7.125 5.125 Z " fill="#101005" transform="translate(259,215)"/>
<path d="M0 0 C2.875 1.8125 2.875 1.8125 5 4 C5 4.99 5 5.98 5 7 C-0.28 7 -5.56 7 -11 7 C-10 3 -10 3 -8.3125 1.25 C-5.24885205 -0.40602592 -3.44265183 -0.4918074 0 0 Z " fill="#25270C" transform="translate(307,212)"/>
<path d="M0 0 C0.66 0.33 1.32 0.66 2 1 C-2.29 5.29 -6.58 9.58 -11 14 C-11 10.30159372 -10.17133056 9.68584567 -7.75 7 C-7.14671875 6.319375 -6.5434375 5.63875 -5.921875 4.9375 C-4.06233388 3.06284066 -2.15205789 1.52358081 0 0 Z " fill="#C7D043" transform="translate(141,183)"/>
<path d="M0 0 C0.66 0.33 1.32 0.66 2 1 C-0.31 3.31 -2.62 5.62 -5 8 C-5.66 7.67 -6.32 7.34 -7 7 C-4.66666667 4.66666667 -2.33333333 2.33333333 0 0 Z " fill="#BFC741" transform="translate(292,205)"/>
</svg>
